<svg width="36" height="20" viewBox="0 0 36 20" fill="none" xmlns="http://www.w3.org/2000/svg">
<path d="M15.04 8.91L15.79 10.38C15.44 10.75 14.94 11.06 14.28 11.29C13.63 11.52 12.94 11.64 12.21 11.64C10.51 11.64 9.12 11.11 8.05 10.06C7 9 6.47 7.61 6.47 5.88C6.47 4.22 6.97 2.84 7.98 1.75C8.98 0.659995 10.38 0.119995 12.17 0.119995C13.59 0.119995 14.73 0.499995 15.57 1.25L14.69 2.7C13.93 2.2 13.1 1.95 12.17 1.95C11.11 1.95 10.24 2.31 9.56 3.02C8.88 3.73 8.54 4.69 8.54 5.88C8.54 7.05 8.9 8 9.61 8.72C10.33 9.44 11.26 9.8 12.4 9.8C13.37 9.8 14.26 9.5 15.04 8.91Z" fill="white"/>
<path d="M22.22 8.49C22.22 8.15 22.09 7.85001 21.84 7.59C21.59 7.33 21.28 7.12 20.91 6.95C20.54 6.78 20.13 6.59 19.69 6.38C19.25 6.16001 18.84 5.93 18.47 5.69C18.1 5.45001 17.79 5.12 17.54 4.69C17.29 4.26 17.16 3.76 17.16 3.20001C17.16 2.34 17.47 1.61 18.1 1.02C18.75 0.420005 19.59 0.130005 20.64 0.130005C22.05 0.130005 23.12 0.530005 23.83 1.33L22.78 2.8C22.22 2.25001 21.56 1.97 20.8 1.97C20.32 1.97 19.94 2.08 19.66 2.31C19.38 2.54 19.24 2.83001 19.24 3.20001C19.24 3.39001 19.28 3.57 19.35 3.73C19.42 3.9 19.51 4.03 19.6 4.14C19.69 4.25 19.84 4.36 20.05 4.49C20.26 4.62 20.42 4.71 20.54 4.77C20.66 4.83 20.87 4.92 21.15 5.05C21.44 5.18001 21.64 5.27 21.76 5.32C22.23 5.53 22.64 5.76 22.99 5.99C23.38 6.22 23.7 6.56 23.94 6.99C24.18 7.43 24.3 7.93 24.3 8.49C24.3 9.43 23.94 10.19 23.23 10.77C22.52 11.36 21.63 11.65 20.57 11.65C19.83 11.65 19.09 11.5 18.35 11.19C17.65 10.87 17.17 10.44 16.91 9.9L18.03 8.56001C18.33 8.95001 18.71 9.26 19.19 9.49C19.66 9.71 20.13 9.82 20.6 9.82C21.09 9.82 21.48 9.7 21.78 9.47001C22.07 9.21 22.22 8.89 22.22 8.49Z" fill="white"/>
<path d="M29.85 2.10001C29.8 2.10001 29.71 2.10001 29.59 2.11001C29.47 2.12001 29.31 2.12001 29.1 2.13001C28.89 2.14001 28.69 2.14001 28.51 2.14001V5.46001H29.79C30.42 5.46001 30.93 5.31001 31.33 5.00001C31.73 4.69001 31.93 4.27001 31.93 3.74001C31.93 2.64001 31.24 2.10001 29.85 2.10001ZM28.51 7.28001V11.46H26.55V0.30001C27.1 0.30001 27.7 0.29001 28.35 0.28001C29 0.27001 29.53 0.26001 29.94 0.26001C32.64 0.26001 33.99 1.41001 33.99 3.70001C33.99 4.55001 33.77 5.25001 33.34 5.80001C32.9 6.33001 32.4 6.69001 31.84 6.88001L35.33 11.44H32.95L29.87 7.26001H28.51V7.28001Z" fill="white"/>
<path d="M9.93999 12.39H10.51V15.14C10.51 15.82 10.34 16.32 9.98999 16.66C9.64999 17 9.20999 17.17 8.68999 17.17C8.09999 17.17 7.61999 16.99 7.26999 16.64C6.91999 16.29 6.73999 15.77 6.73999 15.1V12.4H7.30999V14.99C7.30999 15.51 7.42999 15.91 7.66999 16.2C7.90999 16.49 8.24999 16.63 8.68999 16.63C9.08999 16.63 9.39999 16.49 9.61999 16.22C9.83999 15.95 9.94999 15.55 9.94999 15.03V12.39H9.93999Z" fill="white"/>
<path d="M14.61 12.39H15.3L13.2 14.6L15.41 17.1H14.68L12.55 14.64L14.61 12.39ZM12.43 17.11H11.86V12.4H12.43V17.11Z" fill="white"/>
<path d="M17.48 12.92C17.43 12.92 17.21 12.93 16.82 12.93V14.68H17.51C17.8 14.68 18.05 14.6 18.26 14.44C18.48 14.27 18.58 14.05 18.58 13.79C18.59 13.21 18.22 12.92 17.48 12.92ZM16.82 15.22V17.1H16.25V12.39C16.47 12.39 16.69 12.39 16.93 12.38C17.17 12.37 17.36 12.37 17.52 12.37C18.64 12.37 19.2 12.84 19.2 13.77C19.2 14.12 19.1 14.41 18.9 14.65C18.71 14.88 18.47 15.03 18.18 15.11L19.75 17.1H19.05L17.6 15.22H16.82Z" fill="white"/>
<path d="M23 15.14L22.15 13.13L21.3 15.14H23ZM20.47 17.11H19.89L21.92 12.37H22.41L24.44 17.11H23.83L23.22 15.68H21.07L20.47 17.11Z" fill="white"/>
<path d="M25.95 12.39H25.38V17.1H25.95V12.39Z" fill="white"/>
<path d="M31.44 12.39V17.11H30.98L28.04 13.4V17.11H27.5V12.39H27.96L30.9 16.11V12.39H31.44Z" fill="white"/>
<path d="M32.85 12.39V17.11H35.58V16.57H33.42V14.99H35.31V14.45H33.42V12.93H35.51V12.39H32.85Z" fill="white"/>
<path d="M4.77999 0H3.92999V17.11H4.77999V0Z" fill="white"/>
<path d="M3.02999 0H2.17999V17.11H3.02999V0Z" fill="white"/>
<path d="M1.27999 0H0.429993V17.11H1.27999V0Z" fill="white"/>
<path d="M2.10999 19.56L2.21999 19.76C2.14999 19.83 2.04999 19.89 1.91999 19.94C1.78999 19.98 1.65999 20 1.52999 20C1.19999 20 0.939993 19.9 0.729993 19.7C0.529993 19.49 0.429993 19.22 0.429993 18.89C0.429993 18.57 0.529993 18.3 0.719993 18.09C0.919993 17.88 1.17999 17.77 1.50999 17.77C1.78999 17.77 2.00999 17.84 2.16999 17.98L2.04999 18.18C1.89999 18.07 1.72999 18.02 1.50999 18.02C1.26999 18.02 1.07999 18.1 0.929993 18.26C0.779993 18.42 0.699993 18.63 0.699993 18.89C0.699993 19.15 0.779993 19.36 0.929993 19.52C1.08999 19.68 1.28999 19.76 1.53999 19.76C1.75999 19.75 1.94999 19.69 2.10999 19.56Z" fill="white"/>
<path d="M2.78 19.97H2.53V18.57H2.78V18.74C2.86 18.61 2.98 18.55 3.13 18.55C3.23 18.55 3.3 18.57 3.35 18.6L3.26 18.83C3.2 18.8 3.14 18.78 3.07 18.78C2.94 18.78 2.85 18.85 2.78 18.98V19.97Z" fill="white"/>
<path d="M4.19999 18.77C4.07999 18.77 3.97999 18.8 3.89999 18.87C3.81999 18.94 3.76999 19.03 3.75999 19.14H4.59999C4.58999 19.02 4.54999 18.93 4.47999 18.87C4.40999 18.81 4.31999 18.77 4.19999 18.77ZM4.68999 19.62L4.76999 19.82C4.62999 19.94 4.44999 20 4.23999 20C4.00999 20 3.82999 19.93 3.69999 19.8C3.55999 19.67 3.48999 19.49 3.48999 19.27C3.48999 19.06 3.54999 18.89 3.67999 18.75C3.80999 18.61 3.97999 18.54 4.20999 18.54C4.39999 18.54 4.54999 18.6 4.66999 18.72C4.78999 18.84 4.85999 18.99 4.85999 19.18C4.85999 19.24 4.84999 19.3 4.83999 19.35H3.76999C3.77999 19.48 3.82999 19.58 3.91999 19.66C4.00999 19.74 4.11999 19.77 4.25999 19.77C4.43999 19.77 4.57999 19.72 4.68999 19.62Z" fill="white"/>
<path d="M5.61001 19.77C5.75001 19.77 5.87001 19.71 5.97001 19.59V19.41C5.88001 19.35 5.78001 19.32 5.66001 19.32C5.57001 19.32 5.50001 19.34 5.45001 19.38C5.39001 19.42 5.36001 19.48 5.36001 19.55C5.36001 19.62 5.38001 19.67 5.43001 19.71C5.47001 19.75 5.54001 19.77 5.61001 19.77ZM5.27001 18.87L5.20001 18.67C5.34001 18.59 5.49001 18.54 5.67001 18.54C5.86001 18.54 6.00001 18.59 6.08001 18.68C6.17001 18.77 6.21001 18.92 6.21001 19.11V19.97H5.98001V19.79C5.87001 19.92 5.72001 19.99 5.53001 19.99C5.40001 19.99 5.30001 19.95 5.22001 19.87C5.14001 19.8 5.10001 19.69 5.10001 19.56C5.10001 19.42 5.15001 19.32 5.25001 19.24C5.35001 19.16 5.48001 19.12 5.63001 19.12C5.78001 19.12 5.89001 19.15 5.98001 19.21C5.98001 19.05 5.96001 18.94 5.91001 18.87C5.87001 18.8 5.78001 18.77 5.66001 18.77C5.53001 18.76 5.40001 18.8 5.27001 18.87Z" fill="white"/>
<path d="M6.60001 19.44V18.19H6.85001V18.58H7.36001V18.81H6.84001V19.42C6.84001 19.65 6.92001 19.77 7.09001 19.77C7.17001 19.77 7.24001 19.74 7.31001 19.69L7.39001 19.88C7.29001 19.96 7.17001 20 7.03001 20C6.88001 20 6.77001 19.95 6.70001 19.86C6.63001 19.77 6.60001 19.63 6.60001 19.44Z" fill="white"/>
<path d="M8.28001 18.77C8.16001 18.77 8.06001 18.8 7.98001 18.87C7.90001 18.94 7.85001 19.03 7.84001 19.14H8.69001C8.68001 19.02 8.64001 18.93 8.57001 18.87C8.50001 18.81 8.40001 18.77 8.28001 18.77ZM8.77001 19.62L8.85001 19.82C8.71001 19.94 8.54001 20 8.32001 20C8.09001 20 7.91001 19.93 7.78001 19.8C7.64001 19.67 7.57001 19.49 7.57001 19.27C7.57001 19.06 7.63001 18.89 7.76001 18.75C7.89001 18.61 8.06001 18.54 8.29001 18.54C8.48001 18.54 8.63001 18.6 8.75001 18.72C8.87001 18.84 8.94001 18.99 8.94001 19.18C8.94001 19.24 8.93001 19.3 8.92001 19.35H7.85001C7.86001 19.48 7.91001 19.58 8.00001 19.66C8.09001 19.74 8.20001 19.77 8.34001 19.77C8.52001 19.77 8.67001 19.72 8.77001 19.62Z" fill="white"/>
<path d="M11.03 19.41C11.03 19.34 11.01 19.27 10.97 19.22C10.93 19.17 10.88 19.12 10.82 19.09C10.76 19.06 10.69 19.02 10.61 18.99C10.53 18.96 10.46 18.92 10.38 18.89C10.3 18.85 10.24 18.81 10.17 18.77C10.11 18.72 10.06 18.66 10.02 18.59C9.98 18.52 9.96 18.43 9.96 18.33C9.96 18.17 10.02 18.04 10.14 17.93C10.26 17.82 10.42 17.77 10.62 17.77C10.74 17.77 10.86 17.79 10.97 17.83C11.08 17.87 11.16 17.93 11.22 17.99L11.08 18.19C10.96 18.07 10.81 18.01 10.64 18.01C10.52 18.01 10.42 18.04 10.35 18.1C10.28 18.16 10.24 18.24 10.24 18.33C10.24 18.4 10.26 18.47 10.3 18.52C10.34 18.57 10.39 18.62 10.45 18.65C10.51 18.68 10.58 18.72 10.66 18.75C10.74 18.78 10.81 18.81 10.89 18.85C10.97 18.89 11.03 18.93 11.1 18.97C11.16 19.02 11.21 19.08 11.25 19.15C11.29 19.23 11.31 19.32 11.31 19.41C11.31 19.59 11.24 19.73 11.1 19.84C10.97 19.95 10.8 20 10.6 20C10.46 20 10.32 19.97 10.19 19.91C10.06 19.85 9.97 19.77 9.91 19.67L10.06 19.49C10.12 19.57 10.2 19.63 10.3 19.68C10.4 19.73 10.5 19.75 10.6 19.75C10.72 19.75 10.82 19.72 10.9 19.66C10.99 19.6 11.03 19.52 11.03 19.41Z" fill="white"/>
<path d="M12.66 18.57H12.91V19.97H12.66V19.77C12.53 19.92 12.36 20 12.17 20C12.01 20 11.88 19.95 11.79 19.85C11.7 19.75 11.65 19.6 11.65 19.4V18.57H11.9V19.35C11.9 19.63 12.02 19.77 12.26 19.77C12.33 19.77 12.41 19.75 12.48 19.71C12.55 19.67 12.61 19.62 12.66 19.56V18.57Z" fill="white"/>
<path d="M14.07 19.59C14.07 19.54 14.04 19.5 13.99 19.47C13.94 19.44 13.88 19.41 13.8 19.39C13.73 19.37 13.65 19.34 13.58 19.31C13.5 19.28 13.44 19.24 13.39 19.17C13.34 19.11 13.31 19.03 13.31 18.94C13.31 18.82 13.35 18.73 13.44 18.65C13.53 18.58 13.64 18.54 13.79 18.54C14 18.54 14.16 18.6 14.27 18.7L14.15 18.89C14.05 18.8 13.93 18.75 13.8 18.75C13.73 18.75 13.68 18.77 13.64 18.8C13.6 18.83 13.58 18.87 13.58 18.92C13.58 18.97 13.61 19.02 13.66 19.05C13.71 19.08 13.77 19.11 13.85 19.13C13.92 19.15 14 19.18 14.07 19.2C14.14 19.23 14.21 19.27 14.26 19.33C14.31 19.39 14.34 19.47 14.34 19.55C14.34 19.69 14.29 19.79 14.18 19.87C14.08 19.94 13.95 19.98 13.79 19.98C13.68 19.98 13.58 19.96 13.48 19.91C13.38 19.86 13.31 19.81 13.28 19.76L13.42 19.58C13.46 19.63 13.52 19.67 13.6 19.7C13.68 19.74 13.76 19.75 13.82 19.75C13.89 19.75 13.95 19.73 14 19.7C14.04 19.7 14.07 19.65 14.07 19.59Z" fill="white"/>
<path d="M14.66 19.44V18.19H14.91V18.58H15.42V18.81H14.91V19.42C14.91 19.65 14.99 19.77 15.16 19.77C15.24 19.77 15.31 19.74 15.38 19.69L15.46 19.88C15.36 19.96 15.24 20 15.1 20C14.95 20 14.84 19.95 14.77 19.86C14.7 19.77 14.66 19.63 14.66 19.44Z" fill="white"/>
<path d="M16.21 19.77C16.35 19.77 16.47 19.71 16.57 19.59V19.41C16.48 19.35 16.38 19.32 16.26 19.32C16.17 19.32 16.1 19.34 16.05 19.38C15.99 19.42 15.96 19.48 15.96 19.55C15.96 19.62 15.98 19.67 16.03 19.71C16.07 19.75 16.13 19.77 16.21 19.77ZM15.86 18.87L15.79 18.67C15.93 18.59 16.08 18.54 16.26 18.54C16.45 18.54 16.59 18.59 16.67 18.68C16.76 18.77 16.8 18.92 16.8 19.11V19.97H16.56V19.79C16.45 19.92 16.3 19.99 16.11 19.99C15.98 19.99 15.88 19.95 15.8 19.87C15.72 19.79 15.68 19.69 15.68 19.55C15.68 19.41 15.73 19.31 15.83 19.23C15.93 19.15 16.06 19.11 16.21 19.11C16.36 19.11 16.47 19.14 16.56 19.2C16.56 19.04 16.54 18.93 16.49 18.86C16.45 18.79 16.36 18.76 16.24 18.76C16.12 18.76 15.99 18.8 15.86 18.87Z" fill="white"/>
<path d="M17.53 19.97H17.28V18.57H17.53V19.97ZM17.26 18.05C17.26 18.01 17.27 17.97 17.31 17.94C17.34 17.91 17.38 17.9 17.42 17.9C17.46 17.9 17.5 17.91 17.53 17.94C17.56 17.97 17.57 18 17.57 18.05C17.57 18.1 17.56 18.14 17.53 18.17C17.5 18.2 17.46 18.22 17.42 18.22C17.37 18.22 17.34 18.21 17.31 18.17C17.27 18.13 17.26 18.1 17.26 18.05Z" fill="white"/>
<path d="M18.3 19.97H18.05V18.57H18.3V18.74C18.35 18.68 18.42 18.63 18.5 18.6C18.58 18.56 18.67 18.54 18.75 18.54C19.14 18.54 19.33 18.75 19.33 19.16V19.97H19.08V19.21C19.08 18.92 18.95 18.78 18.69 18.78C18.53 18.78 18.4 18.84 18.3 18.96V19.97Z" fill="white"/>
<path d="M20.17 19.77C20.31 19.77 20.43 19.71 20.53 19.59V19.41C20.44 19.35 20.34 19.32 20.22 19.32C20.13 19.32 20.06 19.34 20.01 19.38C19.95 19.42 19.92 19.48 19.92 19.55C19.92 19.62 19.94 19.67 19.99 19.71C20.03 19.75 20.09 19.77 20.17 19.77ZM19.83 18.87L19.76 18.67C19.9 18.59 20.05 18.54 20.23 18.54C20.42 18.54 20.56 18.59 20.64 18.68C20.73 18.77 20.77 18.92 20.77 19.11V19.97H20.53V19.79C20.42 19.92 20.27 19.99 20.08 19.99C19.95 19.99 19.85 19.95 19.77 19.87C19.69 19.79 19.65 19.69 19.65 19.55C19.65 19.41 19.7 19.31 19.8 19.23C19.9 19.15 20.03 19.11 20.18 19.11C20.33 19.11 20.44 19.14 20.53 19.2C20.53 19.04 20.51 18.93 20.46 18.86C20.42 18.79 20.33 18.76 20.21 18.76C20.09 18.76 19.96 18.8 19.83 18.87Z" fill="white"/>
<path d="M21.81 18.77C21.74 18.77 21.67 18.79 21.6 18.82C21.53 18.85 21.47 18.9 21.43 18.95V19.67C21.53 19.74 21.64 19.77 21.77 19.77C21.92 19.77 22.04 19.72 22.13 19.63C22.22 19.54 22.27 19.42 22.27 19.27C22.27 19.12 22.23 19 22.15 18.91C22.06 18.82 21.95 18.77 21.81 18.77ZM21.18 19.84V17.8H21.43V18.71C21.48 18.66 21.55 18.62 21.63 18.59C21.71 18.56 21.79 18.54 21.87 18.54C22.08 18.54 22.24 18.61 22.35 18.74C22.47 18.87 22.53 19.04 22.53 19.25C22.53 19.48 22.46 19.66 22.32 19.8C22.18 19.93 21.99 20 21.75 20C21.52 20 21.33 19.95 21.18 19.84Z" fill="white"/>
<path d="M22.89 19.6V17.8H23.14V19.49C23.14 19.67 23.2 19.77 23.31 19.77C23.36 19.77 23.42 19.75 23.49 19.71L23.55 19.9C23.46 19.97 23.35 20.01 23.22 20.01C22.99 19.99 22.89 19.86 22.89 19.6Z" fill="white"/>
<path d="M24.4 18.77C24.28 18.77 24.18 18.8 24.1 18.87C24.02 18.94 23.97 19.03 23.96 19.14H24.81C24.8 19.02 24.76 18.93 24.69 18.87C24.62 18.81 24.52 18.77 24.4 18.77ZM24.89 19.62L24.97 19.82C24.83 19.94 24.66 20 24.44 20C24.21 20 24.03 19.93 23.9 19.8C23.76 19.67 23.69 19.49 23.69 19.27C23.69 19.06 23.75 18.89 23.88 18.75C24.01 18.61 24.18 18.54 24.41 18.54C24.6 18.54 24.75 18.6 24.87 18.72C24.99 18.84 25.06 18.99 25.06 19.18C25.06 19.24 25.05 19.3 25.04 19.35H23.97C23.98 19.48 24.03 19.58 24.12 19.66C24.21 19.74 24.32 19.77 24.46 19.77C24.64 19.77 24.79 19.72 24.89 19.62Z" fill="white"/>
<path d="M26.77 18.04C26.75 18.04 26.65 18.04 26.47 18.05V18.86H26.79C26.92 18.86 27.04 18.82 27.13 18.75C27.23 18.67 27.28 18.57 27.28 18.45C27.28 18.17 27.11 18.04 26.77 18.04ZM26.47 19.1V19.97H26.2V17.8C26.3 17.8 26.4 17.8 26.51 17.8C26.62 17.8 26.71 17.8 26.78 17.8C27.3 17.8 27.55 18.02 27.55 18.45C27.55 18.61 27.5 18.75 27.41 18.85C27.32 18.96 27.21 19.03 27.08 19.06L27.8 19.98H27.48L26.81 19.11H26.47V19.1Z" fill="white"/>
<path d="M28.58 18.77C28.46 18.77 28.36 18.8 28.28 18.87C28.2 18.94 28.15 19.03 28.14 19.14H28.99C28.98 19.02 28.94 18.93 28.87 18.87C28.79 18.81 28.7 18.77 28.58 18.77ZM29.06 19.62L29.14 19.82C29.01 19.94 28.83 20 28.62 20C28.39 20 28.21 19.93 28.08 19.8C27.94 19.67 27.87 19.49 27.87 19.27C27.87 19.06 27.93 18.89 28.06 18.75C28.19 18.61 28.36 18.54 28.59 18.54C28.78 18.54 28.93 18.6 29.05 18.72C29.17 18.84 29.24 18.99 29.24 19.18C29.24 19.24 29.23 19.3 29.22 19.35H28.15C28.16 19.48 28.21 19.58 28.3 19.66C28.39 19.74 28.5 19.77 28.64 19.77C28.82 19.77 28.96 19.72 29.06 19.62Z" fill="white"/>
<path d="M30.28 19.59C30.28 19.54 30.25 19.5 30.2 19.47C30.15 19.44 30.09 19.41 30.01 19.39C29.94 19.37 29.86 19.34 29.79 19.31C29.71 19.28 29.65 19.24 29.6 19.17C29.55 19.11 29.52 19.03 29.52 18.94C29.52 18.82 29.56 18.73 29.65 18.65C29.74 18.58 29.85 18.54 30 18.54C30.21 18.54 30.37 18.6 30.48 18.7L30.36 18.89C30.26 18.8 30.14 18.75 30.01 18.75C29.94 18.75 29.89 18.77 29.85 18.8C29.81 18.83 29.79 18.87 29.79 18.92C29.79 18.97 29.82 19.02 29.87 19.05C29.92 19.08 29.98 19.11 30.06 19.13C30.13 19.15 30.21 19.18 30.28 19.2C30.35 19.23 30.42 19.27 30.47 19.33C30.52 19.39 30.55 19.47 30.55 19.55C30.55 19.69 30.5 19.79 30.39 19.87C30.29 19.94 30.16 19.98 30 19.98C29.89 19.98 29.79 19.96 29.69 19.91C29.59 19.86 29.52 19.81 29.49 19.76L29.63 19.58C29.67 19.63 29.73 19.67 29.81 19.7C29.89 19.74 29.97 19.75 30.03 19.75C30.1 19.75 30.16 19.73 30.21 19.7C30.26 19.7 30.28 19.65 30.28 19.59Z" fill="white"/>
<path d="M31.89 18.57H32.14V19.97H31.89V19.77C31.76 19.92 31.59 20 31.4 20C31.24 20 31.11 19.95 31.02 19.85C30.93 19.75 30.88 19.6 30.88 19.4V18.57H31.13V19.35C31.13 19.63 31.25 19.77 31.49 19.77C31.56 19.77 31.64 19.75 31.71 19.71C31.78 19.67 31.84 19.62 31.89 19.56V18.57Z" fill="white"/>
<path d="M32.59 19.6V17.8H32.84V19.49C32.84 19.67 32.9 19.77 33.01 19.77C33.06 19.77 33.12 19.75 33.19 19.71L33.25 19.9C33.16 19.97 33.05 20.01 32.92 20.01C32.69 19.99 32.59 19.86 32.59 19.6Z" fill="white"/>
<path d="M33.46 19.44V18.19H33.71V18.58H34.22V18.81H33.7V19.42C33.7 19.65 33.78 19.77 33.95 19.77C34.03 19.77 34.1 19.74 34.17 19.69L34.25 19.88C34.15 19.96 34.03 20 33.89 20C33.74 20 33.63 19.95 33.56 19.86C33.49 19.77 33.46 19.63 33.46 19.44Z" fill="white"/>
<path d="M35.29 19.59C35.29 19.54 35.26 19.5 35.21 19.47C35.16 19.44 35.1 19.41 35.02 19.39C34.95 19.37 34.87 19.34 34.8 19.31C34.72 19.28 34.66 19.24 34.61 19.17C34.56 19.11 34.53 19.03 34.53 18.94C34.53 18.82 34.57 18.73 34.66 18.65C34.75 18.58 34.86 18.54 35.01 18.54C35.22 18.54 35.38 18.6 35.49 18.7L35.37 18.89C35.27 18.8 35.15 18.75 35.02 18.75C34.95 18.75 34.9 18.77 34.86 18.8C34.82 18.83 34.8 18.87 34.8 18.92C34.8 18.97 34.83 19.02 34.88 19.05C34.93 19.08 34.99 19.11 35.07 19.13C35.14 19.15 35.22 19.18 35.29 19.2C35.36 19.23 35.43 19.27 35.48 19.33C35.53 19.39 35.56 19.47 35.56 19.55C35.56 19.69 35.51 19.79 35.4 19.87C35.3 19.96 35.17 20 35.01 20C34.9 20 34.8 19.98 34.7 19.93C34.6 19.88 34.53 19.83 34.5 19.78L34.64 19.6C34.68 19.65 34.74 19.69 34.82 19.72C34.9 19.76 34.98 19.77 35.04 19.77C35.11 19.77 35.17 19.75 35.22 19.72C35.27 19.7 35.29 19.65 35.29 19.59Z" fill="white"/>
</svg>
