<svg width="30" height="30" viewBox="0 0 30 30" fill="none" xmlns="http://www.w3.org/2000/svg">
<path d="M15 0C6.72 0 0 6.72 0 15C0 22.92 6.135 29.385 13.905 29.94H16.095C23.865 29.385 30 22.92 30 15C30 6.72 23.28 0 15 0Z" fill="#00247D"/>
<path d="M25.74 4.545L18.735 9.15V0.495C17.55 0.18 16.29 0 15 0C13.71 0 12.45 0.18 11.265 0.495V9.12L4.29 4.515C2.985 5.85 1.92 7.425 1.17 9.165L2.37 9.96H0.885C0.33 11.535 0 13.23 0 15C0 16.74 0.315 18.405 0.855 19.95H2.28L1.125 20.715C1.845 22.47 2.895 24.06 4.2 25.41L11.25 20.775V29.52C12.105 29.745 12.99 29.895 13.905 29.955H16.095C17.01 29.895 17.88 29.745 18.75 29.52V20.805L25.77 25.455C27.075 24.12 28.125 22.53 28.86 20.775L27.63 19.965H29.145C29.685 18.405 30 16.74 30 15C30 13.23 29.67 11.535 29.115 9.96H27.72L28.845 9.225C28.11 7.47 27.045 5.88 25.74 4.545Z" fill="white"/>
<path d="M17.235 0.18C16.5 0.075 15.765 0 15 0C14.235 0 13.5 0.075 12.765 0.18V11.97H0.3C0.105 12.96 0 13.965 0 15C0 16.005 0.105 16.98 0.285 17.94H12.75V29.82C13.125 29.88 13.515 29.925 13.89 29.955H16.08C16.47 29.925 16.845 29.88 17.22 29.82V17.94H29.685C29.895 16.98 30 16.005 30 15C30 13.965 29.895 12.96 29.7 11.985H17.25V0.18H17.235Z" fill="#CF142B"/>
<path d="M28.425 21.645L25.89 19.95L24.99 19.35H21.6L22.5 19.95L27.51 23.28C27.855 22.755 28.155 22.215 28.425 21.645Z" fill="#CF142B"/>
<path d="M7.49999 19.95L2.48999 23.265C2.83499 23.79 3.20999 24.27 3.61499 24.75L10.815 19.95L11.235 19.665V19.41H8.30999L7.49999 19.95Z" fill="#CF142B"/>
<path d="M26.34 5.19L19.17 9.96H22.545L27.465 6.675C27.12 6.15 26.745 5.67 26.34 5.19Z" fill="#CF142B"/>
<path d="M1.60498 8.28L4.15498 9.96H7.54498L2.53498 6.66C2.18998 7.17 1.88998 7.71 1.60498 8.28Z" fill="#CF142B"/>
</svg>
