<svg width="32" height="20" viewBox="0 0 32 20" fill="none" xmlns="http://www.w3.org/2000/svg">
<g clip-path="url(#clip0_6_85)">
<path d="M25.91 15.46C25.97 15.34 26 15.29 26.02 15.23C26.36 14.06 26.7 12.89 27.04 11.71C27.24 11.01 27.43 10.31 27.62 9.61002C27.7 9.34002 27.73 9.33002 28.01 9.35002C28.31 9.38002 28.6 9.41002 28.9 9.42002C29.1 9.43002 29.2 9.52002 29.24 9.72002C29.55 11.16 29.89 12.6 30.19 14.05C30.56 15.84 30.89 17.63 31.24 19.42C31.31 19.76 31.3 19.77 30.95 19.81C30.8 19.83 30.65 19.84 30.5 19.85C30.25 19.87 30.21 19.84 30.17 19.59C30.05 18.85 29.94 18.1 29.79 17.36C29.4 15.43 28.98 13.51 28.57 11.59C28.55 11.5 28.51 11.41 28.47 11.26C28.41 11.37 28.37 11.43 28.35 11.49C28.02 12.52 27.68 13.55 27.35 14.59C27.11 15.35 26.9 16.11 26.68 16.87C26.63 17.06 26.52 17.14 26.33 17.12C25.99 17.09 25.65 17.07 25.32 17.03C25.25 17.02 25.14 16.92 25.12 16.84C24.62 15.11 24.13 13.37 23.64 11.63C23.6 11.5 23.57 11.37 23.5 11.25C23.49 11.3 23.47 11.34 23.46 11.39C23.18 12.74 22.92 14.09 22.6 15.43C22.28 16.79 21.88 18.13 21.52 19.48C21.47 19.66 21.38 19.75 21.19 19.72C21.1 19.71 21 19.7 20.91 19.69C20.57 19.65 20.54 19.63 20.61 19.3C20.97 17.57 21.32 15.85 21.7 14.12C22.02 12.62 22.35 11.12 22.5 9.60002C22.52 9.44002 22.59 9.35002 22.74 9.36002C23.16 9.39002 23.58 9.41002 23.99 9.49002C24.11 9.51002 24.22 9.71002 24.27 9.85002C24.44 10.31 24.6 10.78 24.74 11.26C25.1 12.55 25.44 13.85 25.8 15.15C25.83 15.26 25.86 15.33 25.91 15.46Z" fill="white"/>
<path d="M16.03 19.9C15.54 19.88 15.06 19.85 14.57 19.83C14.39 19.82 14.33 19.74 14.34 19.55C14.38 18.94 14.43 18.33 14.44 17.72C14.47 16.72 14.47 15.73 14.49 14.73C14.52 13.38 14.54 12.03 14.58 10.68C14.59 10.25 14.63 9.80997 14.66 9.37997C14.67 9.22997 14.74 9.15997 14.89 9.15997C15.64 9.17997 16.38 9.19997 17.13 9.21997C17.41 9.22997 17.7 9.22997 17.98 9.23997C18.6 9.25997 19.23 9.28997 19.85 9.32997C20.09 9.33997 20.31 9.68997 20.2 9.90997C20.17 9.96997 20.08 10.01 20.01 10.02C19.43 10.09 18.85 10.16 18.27 10.21C17.43 10.29 16.6 10.35 15.76 10.42C15.6 10.43 15.55 10.51 15.56 10.66C15.6 11.54 15.64 12.42 15.67 13.3C15.68 13.5 15.77 13.57 15.95 13.59C16.78 13.66 17.61 13.73 18.44 13.8C18.56 13.81 18.68 13.82 18.8 13.83C19.17 13.87 19.26 13.98 19.27 14.36C19.27 14.49 19.2 14.52 19.09 14.53C18.27 14.6 17.44 14.67 16.62 14.74C16.4 14.76 16.17 14.77 15.95 14.78C15.78 14.78 15.7 14.85 15.7 15.02C15.69 16.17 15.68 17.31 15.66 18.46C15.66 18.64 15.73 18.71 15.91 18.73C17.13 18.85 18.35 18.98 19.57 19.1C19.85 19.13 20.05 19.42 19.96 19.68C19.94 19.73 19.83 19.78 19.75 19.78C19.36 19.8 18.98 19.82 18.59 19.82C17.74 19.83 16.88 19.82 16.03 19.82C16.04 19.85 16.03 19.88 16.03 19.9Z" fill="white"/>
<path d="M7.08001 17.35C7.12001 18.06 6.89001 18.67 6.38001 19.17C5.82001 19.72 5.13001 19.88 4.38001 19.86C3.56001 19.83 2.75001 19.69 1.97001 19.42C1.69001 19.33 1.42001 19.19 1.16001 19.06C1.10001 19.03 1.05001 18.9 1.05001 18.81C1.05001 18.67 1.11001 18.53 1.14001 18.39C1.18001 18.23 1.26001 18.21 1.41001 18.28C2.06001 18.59 2.73001 18.81 3.46001 18.84C4.16001 18.87 4.86001 18.8 5.42001 18.32C5.59001 18.17 5.73001 17.93 5.78001 17.71C5.93001 17.07 5.73001 16.5 5.30001 16C4.94001 15.58 4.51001 15.25 4.04001 14.95C3.45001 14.58 2.86001 14.23 2.29001 13.84C1.75001 13.46 1.26001 13 0.970006 12.39C0.560006 11.53 0.660006 10.69 1.13001 9.87997C1.46001 9.30997 1.92001 8.90997 2.54001 8.67997C3.00001 8.50997 3.47001 8.54997 3.93001 8.61997C4.80001 8.75997 5.62001 9.05997 6.43001 9.40997C6.68001 9.51997 6.73001 9.83997 6.52001 9.99997C6.47001 10.04 6.35001 10.03 6.28001 9.99997C5.60001 9.78997 4.91001 9.59997 4.19001 9.55997C3.85001 9.53997 3.48001 9.53997 3.15001 9.62997C1.92001 9.99997 1.78001 11.34 2.31001 12.17C2.65001 12.71 3.18001 13.04 3.70001 13.37C4.36001 13.79 5.04001 14.19 5.69001 14.63C6.25001 15.01 6.68001 15.52 6.89001 16.18C7.01001 16.56 7.06001 16.96 7.14001 17.34C7.12001 17.35 7.10001 17.35 7.08001 17.35Z" fill="white"/>
<path d="M11.19 19.31C11.19 19.36 11.19 19.42 11.19 19.47C11.17 19.9 10.8 20.12 10.42 19.93C10.09 19.76 9.91001 19.49 9.92001 19.11C9.93001 17.81 9.94001 16.51 9.94001 15.2C9.94001 13.91 9.94001 12.62 9.94001 11.33C9.94001 11 9.96001 10.68 9.98001 10.35C9.99001 10.17 9.91001 10.1 9.73001 10.09C9.04001 10.05 8.35001 10.01 7.66001 9.97001C7.47001 9.96001 7.23001 9.57001 7.33001 9.40001C7.35001 9.36001 7.43001 9.33001 7.48001 9.33001C8.09001 9.29001 8.70001 9.25001 9.32001 9.21001C10.46 9.14001 11.61 9.08001 12.75 9.01001C13.23 8.98001 13.68 9.35001 13.68 9.79001C13.68 10 13.58 10.15 13.39 10.21C13.24 10.26 13.07 10.29 12.91 10.28C12.25 10.25 11.58 10.21 10.92 10.17C10.66 10.16 10.64 10.18 10.66 10.44C10.7 11.05 10.75 11.67 10.79 12.28C10.83 12.79 10.86 13.31 10.89 13.82C10.96 15 11.02 16.19 11.09 17.37C11.13 18.04 11.16 18.67 11.19 19.31Z" fill="white"/>
<path d="M4.15 4.27998C4.15 4.28998 4.15 4.28998 4.15 4.29998C4.38 4.27998 4.6 4.26998 4.82 4.23998C4.9 4.21998 5.01 4.13998 5.03 4.06998C5.12 3.75998 5.17 3.43998 5.25 3.11998C5.28 2.95998 5.22 2.88998 5.06 2.89998C4.74 2.89998 4.41 2.89998 4.09 2.89998C3.94 2.89998 3.86 2.95998 3.84 3.10998C3.77 3.43998 3.7 3.77998 3.63 4.10998C3.6 4.24998 3.63 4.31998 3.79 4.29998C3.91 4.28998 4.03 4.28998 4.15 4.27998ZM5.77 5.04998C5.33 5.04998 5.33 5.04998 5.23 5.48998C5.12 5.99998 5.02 6.50998 4.91 7.01998C4.85 7.24998 4.65 7.36998 4.43 7.27998C4.39 7.25998 4.36 7.13998 4.37 7.07998C4.49 6.47998 4.62 5.88998 4.75 5.28998C4.8 5.03998 4.8 5.01998 4.55 4.98998C4.27 4.96998 3.98 4.95998 3.7 4.92998C3.52 4.91998 3.44 4.99998 3.41 5.16998C3.29 5.79998 3.16 6.42998 3.02 7.05998C2.98 7.26998 2.72 7.38998 2.54 7.26998C2.5 7.24998 2.48 7.13998 2.49 7.07998C2.59 6.61998 2.69 6.16998 2.79 5.70998C2.84 5.50998 2.88 5.29998 2.93 5.09998C2.96 4.96998 2.92 4.88998 2.77 4.88998C2.61 4.87998 2.45 4.84998 2.29 4.84998C2.12 4.84998 2.06 4.73998 2.04 4.58998C2.03 4.42998 2.14 4.39998 2.26 4.38998C2.45 4.37998 2.64 4.35998 2.83 4.36998C3 4.36998 3.09 4.30998 3.13 4.13998C3.2 3.78998 3.28 3.43998 3.36 3.09998C3.39 2.95998 3.36 2.88998 3.21 2.88998C3.06 2.88998 2.9 2.86998 2.74 2.85998C2.43 2.82998 2.21 2.52998 2.29 2.21998C2.34 2.03998 2.47 1.98998 2.63 2.00998C2.86 2.02998 3.09 2.05998 3.32 2.07998C3.52 2.09998 3.62 2.02998 3.66 1.82998C3.76 1.34998 3.88 0.879981 4 0.399981C4.02 0.309981 4.04 0.229981 4.07 0.149981C4.15 -0.0200194 4.3 -0.0100194 4.44 0.0299806C4.59 0.0699806 4.51 0.199981 4.49 0.289981C4.36 0.819981 4.22 1.35998 4.08 1.89998C4.03 2.10998 4.06 2.14998 4.28 2.15998C4.58 2.17998 4.88 2.19998 5.17 2.22998C5.34 2.24998 5.43 2.19998 5.47 2.01998C5.62 1.40998 5.77 0.799981 5.93 0.189981C5.96 0.119981 6 0.0399806 6.06 0.0199806C6.14 -0.0100194 6.26 -0.0100194 6.33 0.0299806C6.37 0.0599806 6.38 0.189981 6.36 0.269981C6.23 0.829981 6.09 1.38998 5.96 1.94998C5.89 2.24998 5.9 2.27998 6.2 2.30998C6.34 2.32998 6.48 2.32998 6.63 2.33998C6.79 2.34998 6.87 2.43998 6.9 2.58998C6.92 2.71998 6.89 2.79998 6.75 2.80998C6.5 2.82998 6.25 2.84998 6 2.86998C5.82 2.87998 5.73 2.94998 5.7 3.11998C5.66 3.39998 5.59 3.66998 5.54 3.93998C5.49 4.16998 5.51 4.19998 5.76 4.19998C5.85 4.19998 5.95 4.18998 6.04 4.19998C6.28 4.21998 6.51 4.55998 6.44 4.78998C6.39 4.94998 6.29 5.04998 6.12 5.04998C6 5.05998 5.89 5.04998 5.77 5.04998Z" fill="white"/>
<path d="M8.84001 6.68002C9.01001 6.68002 9.18001 6.68002 9.35001 6.68002C9.72001 6.68002 9.75001 6.64002 9.76001 6.27002C9.78001 5.65002 9.81001 5.04002 9.83001 4.42002C9.86001 3.90002 9.87001 3.37002 9.89001 2.84002C9.90001 2.68002 9.83001 2.61002 9.66001 2.61002C9.38001 2.60002 9.11001 2.58002 8.83001 2.55002C8.58001 2.53002 8.55001 2.55002 8.55001 2.81002C8.53001 3.32002 8.53001 3.83002 8.50001 4.34002C8.46001 5.07002 8.37001 5.80002 8.06001 6.48002C7.99001 6.64002 8.06001 6.68002 8.20001 6.68002C8.41001 6.68002 8.63001 6.68002 8.84001 6.68002ZM11.03 7.70002C11.03 7.98002 11.04 8.26002 11.02 8.53002C11.02 8.60002 10.95 8.67002 10.91 8.74002C10.83 8.68002 10.71 8.63002 10.68 8.56002C10.62 8.36002 10.6 8.15002 10.58 7.94002C10.54 7.50002 10.52 7.49002 10.09 7.46002C9.33001 7.40002 8.57001 7.34002 7.80001 7.27002C7.54001 7.25002 7.51001 7.27002 7.48001 7.52002C7.45001 7.82002 7.42001 8.11002 7.36001 8.41002C7.35001 8.48002 7.26001 8.56002 7.19001 8.58002C7.08001 8.61002 7.01001 8.52002 7.00001 8.40002C6.98001 7.90002 6.97001 7.40002 6.95001 6.90002C6.95001 6.72002 7.05001 6.67002 7.20001 6.68002C7.41001 6.70002 7.50001 6.60002 7.55001 6.41002C7.86001 5.30002 8.02001 4.17002 7.97001 3.01002C7.96001 2.72002 7.95001 2.43002 7.94001 2.14002C7.93001 1.98002 8.01001 1.92002 8.16001 1.93002C8.71001 1.96002 9.27001 1.98002 9.82001 2.01002C9.85001 2.01002 9.89001 2.02002 9.92001 2.02002C10.27 2.07002 10.29 2.07002 10.3 2.42002C10.32 3.10002 10.32 3.79002 10.33 4.47002C10.34 5.07002 10.35 5.66002 10.37 6.26002C10.38 6.62002 10.4 6.64002 10.76 6.64002C10.96 6.64002 11.02 6.72002 11.02 6.91002C11.02 7.18002 11.03 7.44002 11.03 7.70002Z" fill="white"/>
<path d="M13.9 4.12001C14.65 4.10001 14.95 3.85001 15.08 3.10001C15.09 3.06001 15.1 3.02001 15.1 2.98001C15.18 2.54001 14.97 2.32001 14.53 2.38001C14.27 2.41001 14.02 2.46001 13.77 2.49001C13.58 2.51001 13.51 2.60001 13.52 2.78001C13.54 3.12001 13.55 3.46001 13.56 3.80001C13.56 4.11001 13.57 4.12001 13.9 4.12001ZM14.53 4.52001C14.35 4.54001 14.12 4.58001 13.88 4.60001C13.62 4.63001 13.58 4.66001 13.59 4.91001C13.61 5.45001 13.65 5.99001 13.66 6.53001C13.67 6.73001 13.75 6.81001 13.93 6.84001C14.45 6.91001 14.86 6.71001 15.17 6.31001C15.49 5.91001 15.54 5.46001 15.33 4.99001C15.19 4.68001 14.95 4.51001 14.53 4.52001ZM13.03 6.24001C13.07 4.95001 13.12 3.65001 13.15 2.36001C13.16 2.19001 13.22 2.08001 13.4 2.04001C13.76 1.96001 14.11 1.86001 14.47 1.79001C15.15 1.65001 15.66 2.03001 15.7 2.73001C15.73 3.22001 15.68 3.69001 15.43 4.13001C15.4 4.18001 15.41 4.31001 15.46 4.35001C16.1 4.97001 16.1 6.29001 15.62 6.98001C15.29 7.45001 14.55 7.71001 13.91 7.55001C13.77 7.52001 13.63 7.48001 13.51 7.41001C13.21 7.26001 12.99 7.05001 13.04 6.66001C13.04 6.53001 13.02 6.39001 13.03 6.24001Z" fill="white"/>
<path d="M21.62 5.18003C21.62 4.92003 21.62 4.65003 21.62 4.39003C21.62 4.21003 21.54 4.13003 21.37 4.19003C21.21 4.24003 21.05 4.29003 20.9 4.37003C20.24 4.75003 19.94 5.58003 20.06 6.24003C20.14 6.66003 20.47 6.85003 20.85 6.66003C21.1 6.54003 21.32 6.36003 21.53 6.19003C21.59 6.14003 21.61 6.02003 21.62 5.93003C21.63 5.68003 21.62 5.43003 21.62 5.18003ZM21.55 6.87003C21.45 6.96003 21.38 7.03003 21.3 7.10003C20.68 7.65003 19.88 7.46003 19.61 6.67003C19.36 5.92003 19.55 5.22003 19.95 4.58003C20.14 4.27003 20.36 3.96003 20.71 3.81003C20.92 3.73003 21.15 3.68003 21.37 3.64003C21.52 3.62003 21.6 3.56003 21.56 3.42003C21.5 3.19003 21.46 2.94003 21.35 2.73003C21.19 2.44003 20.84 2.36003 20.51 2.51003C20.36 2.58003 20.22 2.68003 20.07 2.77003C19.97 2.83003 19.91 2.81003 19.87 2.70003C19.8 2.50003 19.81 2.34003 19.99 2.20003C20.31 1.95003 20.66 1.81003 21.06 1.85003C21.39 1.88003 21.61 2.08003 21.78 2.35003C22.08 2.83003 22.18 3.36003 22.19 3.91003C22.2 4.99003 22.18 6.08003 22.15 7.16003C22.15 7.27003 22.02 7.38003 21.96 7.48003C21.86 7.41003 21.73 7.35003 21.66 7.25003C21.61 7.16003 21.6 7.02003 21.55 6.87003Z" fill="white"/>
<path d="M28.7 5.16998C28.7 5.02998 28.7 4.88998 28.7 4.73998C28.7 4.65998 28.7 4.57998 28.7 4.49998C28.69 4.15998 28.59 4.08998 28.27 4.19998C27.51 4.45998 26.95 5.44998 27.13 6.23998C27.23 6.67998 27.58 6.84998 27.98 6.62998C28.17 6.51998 28.36 6.39998 28.53 6.24998C28.62 6.16998 28.69 6.02998 28.7 5.90998C28.72 5.65998 28.7 5.41998 28.7 5.16998ZM27.05 2.81998C26.83 2.51998 26.84 2.35998 27.12 2.17998C27.34 2.03998 27.59 1.89998 27.85 1.84998C28.39 1.75998 28.77 2.01998 29.02 2.57998C29.24 3.06998 29.32 3.59998 29.32 4.12998C29.32 5.11998 29.3 6.10998 29.28 7.09998C29.28 7.16998 29.27 7.23998 29.24 7.29998C29.15 7.50998 28.97 7.53998 28.84 7.34998C28.75 7.21998 28.69 7.04998 28.61 6.87998C28.52 6.95998 28.44 7.04998 28.34 7.12998C27.48 7.76998 26.83 7.18998 26.64 6.51998C26.37 5.52998 26.93 4.25998 27.83 3.77998C28.01 3.68998 28.23 3.65998 28.43 3.62998C28.65 3.59998 28.68 3.58998 28.64 3.36998C28.61 3.21998 28.59 3.05998 28.53 2.91998C28.36 2.47998 28.01 2.31998 27.57 2.51998C27.39 2.58998 27.23 2.70998 27.05 2.81998Z" fill="white"/>
<path d="M18.33 5.28999C18.17 5.31999 18.04 5.33999 17.91 5.35999C17.24 5.46999 16.74 5.18999 16.47 4.56999C16.23 3.99999 16.18 3.38999 16.19 2.77999C16.19 2.56999 16.22 2.35999 16.24 2.14999C16.25 2.04999 16.26 1.92999 16.41 1.93999C16.55 1.94999 16.6 2.03999 16.61 2.16999C16.62 2.44999 16.63 2.73999 16.66 3.01999C16.7 3.41999 16.73 3.80999 16.93 4.17999C17.09 4.46999 17.33 4.58999 17.65 4.56999C17.72 4.56999 17.79 4.55999 17.85 4.54999C18.33 4.45999 18.36 4.41999 18.37 3.92999C18.38 3.36999 18.39 2.81999 18.42 2.25999C18.43 2.10999 18.39 1.85999 18.62 1.85999C18.81 1.85999 18.76 2.08999 18.77 2.22999C18.82 2.87999 18.86 3.52999 18.88 4.17999C18.92 5.10999 18.94 6.03999 18.97 6.95999C18.97 7.01999 18.97 7.07999 18.97 7.13999C18.97 7.27998 18.96 7.43999 18.8 7.49999C18.62 7.55999 18.51 7.43999 18.43 7.31999C18.36 7.20999 18.32 7.06999 18.32 6.93999C18.31 6.45999 18.32 5.97999 18.32 5.48998C18.33 5.43999 18.33 5.37999 18.33 5.28999Z" fill="white"/>
<path d="M24.01 6.48003C24.07 5.53003 24.12 4.59003 24.18 3.64003C24.19 3.40003 24.21 3.17003 24.22 2.93003C24.23 2.80003 24.17 2.74003 24.05 2.73003C23.68 2.71003 23.31 2.69003 22.94 2.65003C22.85 2.64003 22.73 2.59003 22.69 2.53003C22.58 2.35003 22.66 2.21003 22.89 2.19003C23.3 2.16003 23.71 2.13003 24.13 2.11003C24.7 2.08003 25.28 2.04003 25.85 2.01003C26.06 2.00003 26.22 2.09003 26.32 2.27003C26.5 2.57003 26.35 2.87003 26 2.86003C25.64 2.85003 25.28 2.83003 24.93 2.80003C24.63 2.78003 24.6 2.80003 24.6 3.10003C24.61 4.12003 24.63 5.15003 24.64 6.17003C24.64 6.45003 24.67 6.74003 24.67 7.02003C24.67 7.26003 24.57 7.41003 24.41 7.42003C24.25 7.44003 24.05 7.25003 24.03 7.04003C24.02 6.86003 24.03 6.68003 24.03 6.49003C24.02 6.48003 24.01 6.48003 24.01 6.48003Z" fill="white"/>
<path d="M11.56 6.53001C11.62 5.13001 11.67 3.74001 11.73 2.34001C11.73 2.27001 11.8 2.21001 11.84 2.14001C11.92 2.20001 12.04 2.25001 12.06 2.33001C12.11 2.50001 12.11 2.69001 12.11 2.87001C12.14 3.97001 12.17 5.07001 12.2 6.16001C12.21 6.36001 12.23 6.57001 12.23 6.77001C12.23 6.87001 12.24 6.98001 12.21 7.07001C12.18 7.15001 12.1 7.27001 12.03 7.28001C11.94 7.30001 11.81 7.26002 11.74 7.19001C11.56 7.03001 11.54 6.78001 11.56 6.53001Z" fill="white"/>
<path d="M12.31 1.03C12.31 1.05 12.31 1.07 12.31 1.09C12.28 1.26 12.29 1.46 12.06 1.5C11.88 1.53 11.72 1.43 11.66 1.18C11.61 0.970003 11.58 0.730003 11.61 0.510003C11.64 0.270003 11.94 0.200003 12.08 0.400003C12.21 0.580003 12.27 0.800003 12.36 1C12.35 1.01 12.33 1.02 12.31 1.03Z" fill="white"/>
</g>
<defs>
<clipPath id="clip0_6_85">
<rect width="32" height="20" fill="white"/>
</clipPath>
</defs>
</svg>
