<svg width="12" height="30" viewBox="0 0 12 30" fill="none" xmlns="http://www.w3.org/2000/svg">
<path d="M1.01008 28.1402C0.980082 27.9302 1.00008 27.6902 1.07008 27.4202C1.14008 27.1502 1.21008 26.8502 1.29008 26.5002L5.05008 11.7402H1.01008V10.5002C4.69008 9.3302 6.89008 8.7402 7.61008 8.7402C8.57008 8.7402 9.05008 9.1302 9.05008 9.9002C9.05008 10.1902 8.94008 10.7402 8.73008 11.5402L5.05008 26.3002H9.05008V27.5402C5.53008 28.7102 3.33008 29.3002 2.45008 29.3002C1.48008 29.3002 1.01008 28.9202 1.01008 28.1402ZM5.85008 3.2602C5.85008 2.5402 6.10008 1.9302 6.61008 1.4402C7.12008 0.950196 7.73008 0.700195 8.45008 0.700195C9.17008 0.700195 9.77008 0.950196 10.2701 1.4402C10.7601 1.9302 11.0101 2.5402 11.0101 3.2602C11.0101 4.0102 10.7601 4.6302 10.2701 5.1202C9.78008 5.6102 9.17008 5.8602 8.45008 5.8602C7.73008 5.8602 7.12008 5.6102 6.61008 5.1202C6.10008 4.6302 5.85008 4.0102 5.85008 3.2602Z" fill="white"/>
</svg>
