<svg width="7" height="18" viewBox="0 0 7 18" fill="none" xmlns="http://www.w3.org/2000/svg">
<path d="M0.318281 16.472C0.302281 16.344 0.310281 16.2 0.342281 16.04C0.390281 15.88 0.438281 15.696 0.486281 15.488L2.74228 6.632H0.318281V5.888C2.52628 5.184 3.84628 4.832 4.27828 4.832C4.85428 4.832 5.14228 5.064 5.14228 5.528C5.14228 5.704 5.07828 6.032 4.95028 6.512L2.74228 15.368H5.14228V16.112C3.03028 16.816 1.71028 17.168 1.18228 17.168C0.606281 17.168 0.318281 16.936 0.318281 16.472ZM3.22228 1.544C3.22228 1.112 3.37428 0.752 3.67828 0.464C3.98228 0.16 4.35028 0.0079999 4.78228 0.0079999C5.21428 0.0079999 5.57428 0.16 5.86228 0.464C6.16628 0.752 6.31828 1.112 6.31828 1.544C6.31828 1.992 6.16628 2.368 5.86228 2.672C5.57428 2.96 5.21428 3.104 4.78228 3.104C4.35028 3.104 3.98228 2.96 3.67828 2.672C3.37428 2.368 3.22228 1.992 3.22228 1.544Z" fill="black"/>
</svg>
