<svg width="40" height="40" viewBox="0 0 40 40" fill="none" xmlns="http://www.w3.org/2000/svg">
<path d="M0 26.088C0 22.014 0 17.94 0 13.866C0.01 13.786 0.024 13.706 0.028 13.626C0.06 12.924 0.092 12.222 0.116 11.52C0.154 10.444 0.304 9.386 0.566 8.342C1.216 5.74 2.6 3.632 4.824 2.106C6.286 1.104 7.93 0.566 9.668 0.3C10.994 0.096 12.334 0.058 13.672 0.028C13.766 0.026 13.86 0.01 13.956 0C17.882 0 21.808 0 25.734 0C25.8 0.01 25.866 0.026 25.93 0.028C26.78 0.06 27.63 0.084 28.48 0.12C29.904 0.182 31.302 0.396 32.654 0.87C35.786 1.964 37.918 4.078 39.074 7.178C39.686 8.82 39.858 10.54 39.922 12.274C39.946 12.938 39.972 13.604 39.998 14.268C39.998 18.134 39.998 22.002 39.998 25.868C39.988 25.962 39.974 26.058 39.97 26.152C39.91 27.296 39.874 28.442 39.784 29.584C39.686 30.836 39.4 32.054 38.918 33.214C37.484 36.664 34.872 38.706 31.266 39.52C29.672 39.88 28.044 39.93 26.416 39.97C26.292 39.972 26.166 39.99 26.042 40C22.146 40 18.25 40 14.354 40C14.296 39.99 14.238 39.974 14.18 39.972C13.3 39.94 12.42 39.914 11.542 39.88C10.4 39.836 9.276 39.676 8.17 39.386C5.448 38.67 3.312 37.146 1.834 34.746C0.678 32.864 0.238 30.77 0.118 28.594C0.076 27.758 0.04 26.924 0 26.088ZM36.338 19.978C36.356 19.978 36.372 19.978 36.39 19.978C36.344 17.32 36.31 14.662 36.25 12.004C36.226 10.966 36.094 9.938 35.804 8.938C35.194 6.844 33.914 5.33 31.89 4.478C30.72 3.986 29.482 3.806 28.23 3.756C26.61 3.69 24.988 3.642 23.368 3.646C19.652 3.658 15.934 3.704 12.218 3.742C11.292 3.752 10.374 3.86 9.468 4.054C7.628 4.45 6.132 5.368 5.076 6.944C4.264 8.156 3.914 9.534 3.804 10.964C3.7 12.322 3.63 13.684 3.63 15.046C3.626 19.444 3.514 23.844 3.754 28.24C3.798 29.042 3.888 29.852 4.072 30.632C4.71 33.366 6.39 35.13 9.112 35.88C10.154 36.168 11.224 36.25 12.296 36.29C13.664 36.34 15.034 36.384 16.404 36.38C19.974 36.368 23.542 36.334 27.112 36.298C28.214 36.286 29.316 36.216 30.4 35.988C31.822 35.688 33.084 35.09 34.118 34.04C35.434 32.704 35.982 31.042 36.16 29.236C36.268 28.14 36.32 27.036 36.336 25.934C36.358 23.948 36.338 21.964 36.338 19.978Z" fill="white"/>
<path d="M19.974 30.2819C14.388 30.3359 9.65401 25.6659 9.70401 19.8739C9.75201 14.2999 14.348 9.73187 19.982 9.71587C25.638 9.69787 30.298 14.3039 30.286 20.0539C30.274 25.8299 25.474 30.3439 19.974 30.2819ZM20.008 13.3759C16.42 13.3399 13.448 16.2199 13.354 19.7659C13.25 23.6059 16.226 26.6399 20.002 26.6419C23.752 26.6439 26.62 23.5719 26.624 20.0539C26.628 16.2599 23.554 13.3499 20.008 13.3759Z" fill="white"/>
<path d="M33.082 9.35597C33.082 10.686 32 11.75 30.654 11.748C29.314 11.744 28.25 10.674 28.252 9.33197C28.254 7.97797 29.322 6.91597 30.68 6.91797C32.028 6.91997 33.082 7.98997 33.082 9.35597Z" fill="white"/>
</svg>
