<svg width="50" height="38" viewBox="0 0 50 38" fill="none" xmlns="http://www.w3.org/2000/svg">
<path d="M38.1233 37.8758C32.9591 37.8758 28.6703 34.8002 26.8903 29.8383H18.616C14.1462 29.8383 9.67382 29.8382 5.20407 29.8409C3.28846 29.8409 1.85708 29.1545 0.94184 27.8029C0.627894 27.3373 0.446975 26.8318 0.274038 26.3449C0.204864 26.1534 0.138349 25.9618 0.061193 25.7782C0.0212845 25.6824 0 25.5787 0 25.4723V4.38993C0 4.33672 0.00532112 4.28085 0.0159634 4.2303C0.28202 2.92928 0.784867 1.98478 1.59634 1.25845C2.52754 0.42303 3.68488 0 5.03113 0H21.3218C25.8341 0 30.3438 6.0955e-08 34.8561 0.00266063C37.8173 0.00266063 39.8979 2.06992 39.9112 5.03113C39.9218 7.20481 39.9191 9.41574 39.9165 11.5548C39.9165 12.4568 39.9138 13.356 39.9138 14.258C39.991 14.2766 40.0681 14.2952 40.1479 14.3112C40.7546 14.4522 41.3798 14.5959 41.9891 14.7981C46.5333 16.3146 49.7419 20.5502 49.9708 25.3392C50.0133 26.2092 50.0399 27.2176 49.8244 28.1807C49.4094 30.0325 48.1296 31.2883 46.222 31.7193C45.8336 31.8071 45.4478 31.8523 45.0753 31.8523C43.8701 31.8523 42.7606 31.3814 41.8347 30.4874C40.7359 31.3947 39.4934 31.8523 38.1312 31.8523C37.9211 31.8523 37.7029 31.8417 37.4847 31.8177C36.0587 31.6714 34.8108 31.0435 33.877 30.0032C31.7113 27.5981 31.7006 24.4772 33.8477 22.0588C34.896 20.8775 36.4764 20.1751 38.0754 20.1751C39.2833 20.1751 40.4725 20.5662 41.5368 21.3085C41.7496 21.2393 41.9625 21.2047 42.17 21.2047C42.6462 21.2047 43.0852 21.391 43.4098 21.7288C43.7982 22.1333 43.9951 22.7212 43.9659 23.3837C43.918 24.4905 43.9366 25.6346 43.9552 26.7387L43.9605 27.0234C43.9712 27.6034 44.3516 28.0876 44.8891 28.1993C44.9849 28.218 45.0806 28.2286 45.1738 28.2286C45.6447 28.2286 46.0571 27.9759 46.246 27.5688C46.3205 27.4065 46.371 27.2096 46.3843 27.0314C46.7009 22.551 43.9738 18.7969 39.7542 17.9056C39.2167 17.7912 38.666 17.7353 38.1179 17.7353C34.0739 17.7353 30.4848 20.8163 29.9473 24.7539C29.3354 29.2183 32.0572 33.1533 36.4152 34.1085C36.9925 34.2362 37.5752 34.3 38.1472 34.3C39.3178 34.3 40.4858 34.0313 41.6166 33.5019C41.7017 33.4619 41.7842 33.4194 41.8693 33.3795C42.0183 33.305 42.1673 33.2305 42.3216 33.164C42.6143 33.0389 42.907 32.9751 43.1916 32.9751C43.8781 32.9751 44.4687 33.3502 44.7693 33.9754C45.1977 34.8667 44.8625 35.8538 43.9526 36.3726C42.7686 37.0484 41.5368 37.4954 40.289 37.7029C39.5653 37.8173 38.8363 37.8758 38.1233 37.8758ZM38.0887 23.7988C36.8781 23.8121 35.8964 24.8098 35.9017 26.0203C35.907 27.2336 36.8967 28.2286 38.11 28.2393C38.6953 28.2393 39.2646 27.9945 39.685 27.5688C40.1134 27.1378 40.3448 26.5817 40.3422 26.0044C40.3315 24.7858 39.3338 23.7961 38.1153 23.7961L38.0887 23.7988ZM3.61305 5.57655C3.60773 11.9433 3.60773 18.3127 3.61039 24.6794C3.61039 25.7835 4.03874 26.2119 5.13489 26.2119H14.4469H26.2412C26.2172 23.2533 27.1431 20.63 29.0002 18.4085C30.8918 16.1443 33.3502 14.7528 36.3194 14.2633C36.4045 12.3264 36.3513 7.8806 36.2555 5.62178C31.7831 9.2907 27.316 12.957 22.8489 16.6232C21.963 17.3496 20.9653 17.7353 19.9649 17.7353C18.9698 17.7353 17.9801 17.3549 17.1021 16.6365C14.4229 14.4416 4.24094 6.09004 4.24094 6.09004C4.03342 5.91976 3.82589 5.74948 3.61305 5.57655ZM19.3955 13.8509C19.5977 14.0159 19.7893 14.101 19.9649 14.101C20.1378 14.101 20.3267 14.0185 20.5263 13.8562C24.6768 10.4507 28.8272 7.04252 32.9751 3.63699H6.94674C11.0946 7.04252 15.245 10.448 19.3955 13.8509Z" fill="white"/>
</svg>
