<svg width="346" height="156" viewBox="0 0 346 156" fill="none" xmlns="http://www.w3.org/2000/svg">
<g filter="url(#filter0_d_177_1905)">
<path d="M93.73 133.2V90.92H100.77V133.2C100.77 137.08 97.53 140.24 93.73 140.24H87.04C83.24 140.24 80 137.07 80 133.2V90.92H87.04V133.2H93.73Z" fill="white"/>
<path d="M109.93 140.25V90.92H116.97V115.23L123.66 90.92H130.71L123.67 115.58L130.71 140.24H123.67L116.97 115.93V140.24L109.93 140.25Z" fill="white"/>
<path d="M151.5 119.67H144.81V140.25H137.76V90.92H151.5C155.3 90.92 158.54 94.09 158.54 97.96V110.43C158.54 113.25 156.78 115.85 154.24 116.91C156.78 118.04 158.54 120.57 158.54 123.39V140.23H165.58V147.27H158.54C154.66 147.27 151.5 143.96 151.5 140.23V119.67ZM144.81 97.97V114.18H151.5V97.97H144.81Z" fill="white"/>
<path d="M188.5 91V140.25H195.54V147.29H188.5C184.62 147.29 181.46 143.98 181.46 140.25V119.81H174.77V140.25H167.73V98.04C167.73 94.16 170.97 91 174.77 91H188.5ZM174.76 98.04V114.32H181.45V98.04H174.76Z" fill="white"/>
<path d="M197.66 140.25V90.92H204.7V140.24H197.66V140.25Z" fill="white"/>
<path d="M213.86 140.25V90.92H220.9L227.59 116.99V90.92H234.63V140.24H227.59L220.9 114.17V140.24H213.86V140.25Z" fill="white"/>
<path d="M264.59 133.2V140.24H250.85C247.05 140.24 243.81 137.07 243.81 133.2V97.97C243.81 94.09 247.05 90.93 250.85 90.93H264.59V97.97H250.85V112.56H263.88V118.06H250.85V133.21C250.85 133.2 264.59 133.2 264.59 133.2Z" fill="white"/>
<path d="M199.13 80.61H192.45V87.57H199.13V80.61Z" fill="white"/>
<path d="M209.91 80.61H203.23V87.57H209.91V80.61Z" fill="white"/>
<path d="M97.05 24.04V39.68H109.38V45.18H97.05V66.32H90V24.04C90 20.16 93.24 17 97.04 17H110.78V24.04H97.05Z" fill="white"/>
<path d="M132.28 59.28V17H139.32V59.28C139.32 63.16 136.08 66.32 132.28 66.32H125.59C121.79 66.32 118.55 63.15 118.55 59.28V17H125.59V59.28H132.28Z" fill="white"/>
<path d="M160.46 24.04V66.31H153.42V24.04H146.38V17H167.51V24.04H160.46Z" fill="white"/>
<path d="M188.29 59.28V17H195.33V59.28C195.33 63.16 192.09 66.32 188.29 66.32H181.6C177.8 66.32 174.56 63.15 174.56 59.28V17H181.6V59.28H188.29Z" fill="white"/>
<path d="M218.24 45.74H211.55V66.32H204.51V17H218.25C222.05 17 225.29 20.17 225.29 24.04V36.51C225.29 39.33 223.53 41.93 220.99 42.99C223.53 44.12 225.29 46.65 225.29 49.47V66.31H232.33V73.35H225.29C221.41 73.35 218.25 70.04 218.25 66.31V45.74H218.24ZM211.54 24.04V40.25H218.23V24.04H211.54Z" fill="white"/>
<path d="M255.23 59.28V66.32H241.49C237.69 66.32 234.45 63.15 234.45 59.28V24.04C234.45 20.16 237.69 17 241.49 17H255.23V24.04H241.49V38.63H254.52V44.13H241.49V59.28H255.23Z" fill="white"/>
</g>
<defs>
<filter id="filter0_d_177_1905" x="-4" y="0" width="354" height="160" filterUnits="userSpaceOnUse" color-interpolation-filters="sRGB">
<feFlood flood-opacity="0" result="BackgroundImageFix"/>
<feColorMatrix in="SourceAlpha" type="matrix" values="0 0 0 0 0 0 0 0 0 0 0 0 0 0 0 0 0 0 127 0" result="hardAlpha"/>
<feOffset dy="4"/>
<feGaussianBlur stdDeviation="2"/>
<feComposite in2="hardAlpha" operator="out"/>
<feColorMatrix type="matrix" values="0 0 0 0 0 0 0 0 0 0 0 0 0 0 0 0 0 0 0.25 0"/>
<feBlend mode="normal" in2="BackgroundImageFix" result="effect1_dropShadow_177_1905"/>
<feBlend mode="normal" in="SourceGraphic" in2="effect1_dropShadow_177_1905" result="shape"/>
</filter>
</defs>
</svg>
