<svg width="568" height="79" viewBox="0 0 568 79" fill="none" xmlns="http://www.w3.org/2000/svg">
<path d="M551.79 22.9546H559.255V62.3523H551.79V22.9546ZM551.79 15.0751C547.468 15.0751 543.934 18.7773 543.934 22.9546V62.3523C543.934 66.688 547.549 70.2318 551.79 70.2318H559.255C563.496 70.2318 567.111 66.688 567.111 62.3523V22.9546C567.111 18.7773 563.578 15.0751 559.255 15.0751H551.79ZM538.043 22.9546V15.0751H522.723C518.481 15.0751 514.866 18.6189 514.866 22.9546V70.2318H522.723V22.9546H538.043ZM491.297 22.9546H498.762V62.3523H491.297V22.9546ZM491.297 15.0751C486.974 15.0751 483.441 18.7773 483.441 22.9546V62.3523C483.441 66.688 487.056 70.2318 491.297 70.2318H498.762C503.003 70.2318 506.618 66.688 506.618 62.3523V22.9546C506.618 18.7773 503.084 15.0751 498.762 15.0751H491.297ZM468.12 62.3523H460.656V42.6507H468.12V62.3523ZM468.12 70.2318C472.361 70.2318 475.977 66.688 475.977 62.3523V42.6507C475.977 39.3416 472.443 36.5022 468.12 36.5022H460.656V15.0751H452.8V70.2318H468.12ZM429.231 70.2318V45.4083H436.695V70.2318C436.695 74.4856 440.228 78.1114 444.551 78.1114H452.408V70.2318H444.551V15.0751H436.695V39.2652H429.231V15.0751H421.374V70.2318H429.231ZM415.478 22.9546V15.0751H391.909V22.9546H399.765V70.2318H407.622V22.9546H415.478ZM378.162 15.0751V46.5168H370.697V15.0751H362.841V46.5168C362.841 50.8524 366.456 54.4728 370.697 54.4728H378.162V62.3523H362.841V70.2318H378.162C382.485 70.2318 386.018 66.5296 386.018 62.3523V15.0751H378.162ZM346.736 62.3523H339.272V42.6507H346.736V62.3523ZM354.593 22.9546V15.0751H331.416V70.2318H346.736C350.978 70.2318 354.593 66.688 354.593 62.3523V42.6507C354.593 39.3416 351.059 36.5022 346.736 36.5022H339.272V22.9546H354.593ZM323.167 70.2318V15.0751H315.306L307.847 45.8014V15.0751H299.99V70.2318H307.847L315.306 39.5V70.2318H323.167ZM308.631 4.83111V0.888611H301.558V3.25302C301.558 7.58868 305.173 11.1326 309.415 11.1326H313.738C317.979 11.1326 321.594 7.58868 321.594 3.25302V0.888611H314.522V4.83111H308.631ZM283.88 41.231H276.416V23.031H283.88V41.231ZM276.416 15.1515C272.175 15.1515 268.56 18.6954 268.56 23.031V70.2318H276.416V47.3795H283.88V70.2318C283.88 74.4091 287.414 78.1114 291.737 78.1114H299.593V70.2318H291.737V15.1515H276.416ZM240.983 49.1924L233.051 15.0751H221.737V70.2318H229.594V31.0689L238.784 70.2318H243.265L252.455 31.0689V70.2318H260.311V15.0751H248.998L240.983 49.1924ZM188.739 41.231H181.274V23.031H188.739V41.231ZM181.274 15.1515C177.033 15.1515 173.418 18.6954 173.418 23.031V70.2318H181.274V47.3795H188.739V70.2318C188.739 74.4091 192.272 78.1114 196.595 78.1114H204.451V70.2318H196.595V15.1515H181.274ZM149.849 70.2318V45.4083H157.313V70.2318C157.313 74.4856 160.847 78.1114 165.17 78.1114H173.026V70.2318H165.17V15.0751H157.313V39.2652H149.849V15.0751H141.993V70.2318H149.849ZM118.739 11.1326H126.28V3.25302H118.739V11.1326ZM130.913 11.1326H138.454V3.25302H130.913V11.1326ZM132.487 15.0751H124.63V70.2318H132.487V15.0751ZM107.344 41.231H99.8798V23.031H107.344V41.231ZM99.8798 15.1515C95.6386 15.1515 92.0235 18.6954 92.0235 23.031V70.2318H99.8798V47.3795H107.344V70.2318C107.344 74.4091 110.878 78.1114 115.2 78.1114H123.057V70.2318H115.2V15.1515H99.8798ZM76.7028 42.6507H69.2385V22.9546H76.7028V42.6507ZM69.2385 70.2318V48.7993H76.7028C80.944 48.7993 84.5591 46.0417 84.5591 42.6507V22.9546C84.5591 18.6189 80.944 15.0751 76.7028 15.0751H61.3821V70.2318H69.2385ZM40.1706 70.2318V43.0439L47.6349 70.2318H55.4912L47.6349 42.6507L55.4912 15.0696H47.6349L40.1706 42.2576V15.0751H32.3142V70.2318H40.1706ZM16.2096 15.0751V46.5168H8.74525V15.0751H0.888916V46.5168C0.888916 50.8524 4.50403 54.4728 8.74525 54.4728H16.2096V62.3523H0.888916V70.2318H16.2096C20.5325 70.2318 24.0659 66.5296 24.0659 62.3523V15.0751H16.2096Z" fill="white"/>
</svg>
