<svg width="316" height="142" viewBox="0 0 316 142" fill="none" xmlns="http://www.w3.org/2000/svg">
<path d="M301.41 91.88H308.21V127.68H301.41V91.88ZM301.41 84.72C297.47 84.72 294.25 88.09 294.25 91.88V127.68C294.25 131.62 297.54 134.84 301.41 134.84H308.21C312.08 134.84 315.37 131.62 315.37 127.68V91.88C315.37 88.09 312.15 84.72 308.21 84.72H301.41ZM288.88 91.88V84.72H274.92C271.05 84.72 267.76 87.94 267.76 91.88V134.84H274.92V91.88H288.88ZM246.28 91.88H253.08V127.68H246.28V91.88ZM246.28 84.72C242.34 84.72 239.12 88.09 239.12 91.88V127.68C239.12 131.62 242.41 134.84 246.28 134.84H253.08C256.95 134.84 260.24 131.62 260.24 127.68V91.88C260.24 88.09 257.02 84.72 253.08 84.72H246.28ZM225.16 127.68H218.36V109.78H225.16V127.68ZM225.16 134.84C229.03 134.84 232.32 131.62 232.32 127.68V109.78C232.32 106.77 229.1 104.2 225.16 104.2H218.36V84.72H211.2V134.84H225.16ZM189.72 134.84V112.29H196.52V134.84C196.52 138.71 199.74 142 203.68 142H210.84V134.84H203.68V84.72H196.52V106.7H189.72V84.72H182.56V134.84H189.72ZM177.19 91.88V84.72H155.71V91.88H162.87V134.84H170.03V91.88H177.19ZM143.18 84.72V113.29H136.38V84.72H129.22V113.29C129.22 117.23 132.51 120.52 136.38 120.52H143.18V127.68H129.22V134.84H143.18C147.12 134.84 150.34 131.47 150.34 127.68V84.72H143.18ZM114.54 127.68H107.74V109.78H114.54V127.68ZM121.7 91.88V84.72H100.58V134.84H114.54C118.41 134.84 121.7 131.62 121.7 127.68V109.78C121.7 106.77 118.48 104.2 114.54 104.2H107.74V91.88H121.7ZM93.06 134.84V84.72H85.9L79.1 112.64V84.72H71.94V134.84H79.1L85.9 106.92V134.84H93.06ZM79.82 75.42V71.84H73.38V73.99C73.38 77.93 76.67 81.15 80.54 81.15H84.48C88.35 81.15 91.64 77.93 91.64 73.99V71.84H85.2V75.42H79.82ZM57.26 108.49H50.46V91.95H57.26V108.49ZM50.46 84.79C46.59 84.79 43.3 88.01 43.3 91.95V134.84H50.46V114.08H57.26V134.84C57.26 138.63 60.48 142 64.42 142H71.58V134.84H64.42V84.79H50.46ZM18.17 115.72L10.94 84.72H0.629997V134.84H7.79V99.26L16.17 134.84H20.25L28.63 99.26V134.84H35.79V84.72H25.48L18.17 115.72Z" fill="white"/>
<path d="M236.43 34.51H229.63V17.97H236.43V34.51ZM229.63 10.81C225.76 10.81 222.47 14.03 222.47 17.97V60.86H229.63V40.09H236.43V60.85C236.43 64.64 239.65 68.01 243.59 68.01H250.75V60.85H243.59V10.81H229.63ZM200.99 60.86V38.3H207.79V60.85C207.79 64.72 211.01 68.01 214.95 68.01H222.11V60.85H214.95V10.74H207.79V32.72H200.99V10.74H193.83V60.86H200.99ZM172.64 7.16H179.51V0H172.64V7.16ZM183.74 7.16H190.61V0H183.74V7.16ZM185.17 10.74H178.01V60.86H185.17V10.74ZM162.26 34.51H155.46V17.97H162.26V34.51ZM155.46 10.81C151.59 10.81 148.3 14.03 148.3 17.97V60.86H155.46V40.09H162.26V60.85C162.26 64.64 165.48 68.01 169.42 68.01H176.58V60.85H169.42V10.81H155.46ZM134.34 35.8H127.54V17.9H134.34V35.8ZM127.54 60.86V41.38H134.34C138.21 41.38 141.5 38.87 141.5 35.8V17.9C141.5 13.96 138.21 10.74 134.34 10.74H120.38V60.86H127.54ZM101.05 60.86V36.16L107.85 60.86H115.01L107.85 35.8L115.01 10.74H107.85L101.05 35.44V10.74H93.89V60.86H101.05ZM79.21 10.74V39.31H72.41V10.74H65.25V39.31C65.25 43.25 68.54 46.54 72.41 46.54H79.21V53.7H65.25V60.86H79.21C83.15 60.86 86.37 57.49 86.37 53.7V10.74H79.21Z" fill="white"/>
</svg>
