<svg width="147" height="22" viewBox="0 0 147 22" fill="none" xmlns="http://www.w3.org/2000/svg">
<path d="M2.74872 2.76839V8.86745H7.55615V11.0108H2.74872V19.2532H0V2.76839C0 1.25678 1.26343 0.0215492 2.74684 0.0215492H8.10326V2.76839H2.74872Z" fill="white"/>
<path d="M16.4847 16.5063V0.0215492H19.2316V16.5063C19.2316 18.0179 17.9681 19.2532 16.4847 19.2532H13.8751C12.3917 19.2532 11.1283 18.0161 11.1283 16.5063V0.0215492H13.8751V16.5063H16.4847Z" fill="white"/>
<path d="M27.474 2.76839V19.2513H24.7272V2.76839H21.9803V0.0215492H30.2227V2.76839H27.474Z" fill="white"/>
<path d="M38.326 16.5063V0.0215492H41.0729V16.5063C41.0729 18.0179 39.8094 19.2532 38.326 19.2532H35.7164C34.233 19.2532 32.9696 18.0161 32.9696 16.5063V0.0215492H35.7164V16.5063H38.326Z" fill="white"/>
<path d="M50.0014 11.2307H47.3919V19.2532H44.645V0.0215492H50.0014C51.4848 0.0215492 52.7483 1.25866 52.7483 2.76839V7.63034C52.7483 8.72832 52.062 9.74546 51.0731 10.1572C52.062 10.5971 52.7483 11.5861 52.7483 12.6841V19.2494H55.4951V21.9962H52.7483C51.2367 21.9962 50.0014 20.7046 50.0014 19.2494V11.2307ZM47.3919 2.76839V9.08743H50.0014V2.76839H47.3919Z" fill="white"/>
<path d="M64.4237 16.5063V19.2532H59.0673C57.5839 19.2532 56.3204 18.0161 56.3204 16.5063V2.76839C56.3204 1.25678 57.5839 0.0215492 59.0673 0.0215492H64.4237V2.76839H59.0673V8.45571H64.1492V10.599H59.0673V16.5063H64.4237Z" fill="white"/>
<path d="M79.397 16.5063V0.0215492H82.1438V16.5063C82.1438 18.0179 80.8804 19.2532 79.397 19.2532H76.7874C75.304 19.2532 74.0405 18.0161 74.0405 16.5063V0.0215492H76.7874V16.5063H79.397Z" fill="white"/>
<path d="M85.7159 19.2532V0.0215492H88.4628V9.49917L91.0724 0.0215492H93.8211L91.0742 9.63642L93.8211 19.2532H91.0742L88.4628 9.77366V19.2513H85.7159V19.2532Z" fill="white"/>
<path d="M101.924 11.2307H99.3147V19.2532H96.5679V0.0215492H101.924C103.408 0.0215492 104.671 1.25866 104.671 2.76839V7.63034C104.671 8.72832 103.985 9.74546 102.996 10.1572C103.985 10.5971 104.671 11.5861 104.671 12.6841V19.2494H107.418V21.9962H104.671C103.16 21.9962 101.924 20.7046 101.924 19.2494V11.2307ZM99.3147 2.76839V9.08743H101.924V2.76839H99.3147Z" fill="white"/>
<path d="M116.349 0.0497513V19.2532H119.095V22H116.349C114.837 22 113.602 20.7084 113.602 19.2532V11.2853H110.992V19.2532H108.245V2.79659C108.245 1.28498 109.509 0.0497513 110.992 0.0497513H116.349ZM110.992 2.79659V9.14383H113.602V2.79659H110.992Z" fill="white"/>
<path d="M119.921 19.2532V0.0215492H122.668V19.2532H119.921Z" fill="white"/>
<path d="M126.238 19.2532V0.0215492H128.985L131.594 10.1873V0.0215492H134.341V19.2532H131.594L128.985 9.0893V19.2532H126.238Z" fill="white"/>
<path d="M146.019 16.5063V19.2532H140.662C139.179 19.2532 137.915 18.0161 137.915 16.5063V2.76839C137.915 1.25678 139.179 0.0215492 140.662 0.0215492H146.019V2.76839H140.662V8.45571H145.744V10.599H140.662V16.5063H146.019Z" fill="white"/>
</svg>
