<svg width="147" height="26" viewBox="0 0 147 26" fill="none" xmlns="http://www.w3.org/2000/svg">
<path d="M2.74872 6.76832V12.8674H7.55615V15.0107H2.74872V23.2531H0V6.76832C0 5.25671 1.26343 4.02148 2.74684 4.02148H8.10326V6.76832H2.74872Z" fill="white"/>
<path d="M16.4848 20.5063V4.02148H19.2317V20.5063C19.2317 22.0179 17.9682 23.2531 16.4848 23.2531H13.8753C12.3918 23.2531 11.1284 22.016 11.1284 20.5063V4.02148H13.8753V20.5063H16.4848V20.5063Z" fill="white"/>
<path d="M27.4741 6.76832V23.2512H24.7273V6.76832H21.9805V4.02148H30.2229V6.76832H27.4741V6.76832Z" fill="white"/>
<path d="M38.3262 20.5063V4.02148H41.073V20.5063C41.073 22.0179 39.8096 23.2531 38.3262 23.2531H35.7166C34.2332 23.2531 32.9697 22.016 32.9697 20.5063V4.02148H35.7166V20.5063H38.3262V20.5063Z" fill="white"/>
<path d="M50.0014 15.2307H47.3919V23.2531H44.645V4.02148H50.0014C51.4848 4.02148 52.7483 5.25859 52.7483 6.76832V11.6303C52.7483 12.7283 52.062 13.7454 51.0731 14.1571C52.062 14.5971 52.7483 15.586 52.7483 16.684V23.2493H55.4951V25.9962H52.7483C51.2367 25.9962 50.0014 24.7045 50.0014 23.2493V15.2307ZM47.3919 6.76832V13.0874H50.0014V6.76832H47.3919Z" fill="white"/>
<path d="M64.4236 20.5063V23.2531H59.0671C57.5837 23.2531 56.3203 22.016 56.3203 20.5063V6.76832C56.3203 5.25671 57.5837 4.02148 59.0671 4.02148H64.4236V6.76832H59.0671V12.4556H64.1491V14.599H59.0671V20.5063H64.4236V20.5063Z" fill="white"/>
<path d="M79.397 20.5063V4.02148H82.1438V20.5063C82.1438 22.0179 80.8804 23.2531 79.397 23.2531H76.7874C75.304 23.2531 74.0405 22.016 74.0405 20.5063V4.02148H76.7874V20.5063H79.397V20.5063Z" fill="white"/>
<path d="M85.7158 23.2531V4.02148H88.4627V13.4991L91.0722 4.02148H93.821L91.0741 13.6364L93.821 23.2531H91.0741L88.4627 13.7736V23.2512H85.7158V23.2531Z" fill="white"/>
<path d="M101.924 15.2307H99.3147V23.2531H96.5679V4.02148H101.924C103.408 4.02148 104.671 5.25859 104.671 6.76832V11.6303C104.671 12.7283 103.985 13.7454 102.996 14.1571C103.985 14.5971 104.671 15.586 104.671 16.684V23.2493H107.418V25.9962H104.671C103.16 25.9962 101.924 24.7045 101.924 23.2493V15.2307ZM99.3147 6.76832V13.0874H101.924V6.76832H99.3147Z" fill="white"/>
<path d="M116.348 4.0498V23.2532H119.095V26.0001H116.348C114.837 26.0001 113.602 24.7084 113.602 23.2532V15.2853H110.992V23.2532H108.245V6.79664C108.245 5.28504 109.509 4.0498 110.992 4.0498H116.348V4.0498ZM110.992 6.79664V13.1439H113.602V6.79664H110.992Z" fill="white"/>
<path d="M119.921 23.2531V4.02148H122.668V23.2531H119.921Z" fill="white"/>
<path d="M126.238 23.2531V4.02148H128.985L131.594 14.1872V4.02148H134.341V23.2531H131.594L128.985 13.0892V23.2531H126.238Z" fill="white"/>
<path d="M146.018 20.5063V23.2531H140.662C139.178 23.2531 137.915 22.016 137.915 20.5063V6.76832C137.915 5.25671 139.178 4.02148 140.662 4.02148H146.018V6.76832H140.662V12.4556H145.744V14.599H140.662V20.5063H146.018V20.5063Z" fill="white"/>
<path d="M120.494 0H117.89V2.71299H120.494V0Z" fill="white"/>
<path d="M124.698 0H122.094V2.71299H124.698V0Z" fill="white"/>
</svg>
