<svg width="346" height="156" viewBox="0 0 346 156" fill="none" xmlns="http://www.w3.org/2000/svg">
<g filter="url(#filter0_d_177_1905)">
<path d="M93.73 133.2V90.92H100.77V133.2C100.77 137.08 97.53 140.24 93.73 140.24H87.04C83.24 140.24 80 137.07 80 133.2V90.92H87.04V133.2H93.73Z" fill="white"/>
<path d="M109.93 140.25V90.92H116.97V115.23L123.66 90.92H130.71L123.67 115.58L130.71 140.24H123.67L116.97 115.93V140.24L109.93 140.25Z" fill="white"/>
<path d="M151.5 119.67H144.81V140.25H137.76V90.92H151.5C155.3 90.92 158.54 94.09 158.54 97.96V110.43C158.54 113.25 156.78 115.85 154.24 116.91C156.78 118.04 158.54 120.57 158.54 123.39V140.23H165.58V147.27H158.54C154.66 147.27 151.5 143.96 151.5 140.23V119.67ZM144.81 97.97V114.18H151.5V97.97H144.81Z" fill="white"/>
<path d="M188.5 91V140.25H195.54V147.29H188.5C184.62 147.29 181.46 143.98 181.46 140.25V119.81H174.77V140.25H167.73V98.04C167.73 94.16 170.97 91 174.77 91H188.5ZM174.76 98.04V114.32H181.45V98.04H174.76Z" fill="white"/>
<path d="M197.66 140.25V90.92H204.7V140.24H197.66V140.25Z" fill="white"/>
<path d="M213.86 140.25V90.92H220.9L227.59 116.99V90.92H234.63V140.24H227.59L220.9 114.17V140.24H213.86V140.25Z" fill="white"/>
<path d="M264.59 133.2V140.24H250.85C247.05 140.24 243.81 137.07 243.81 133.2V97.97C243.81 94.09 247.05 90.93 250.85 90.93H264.59V97.97H250.85V112.56H263.88V118.06H250.85V133.21C250.85 133.2 264.59 133.2 264.59 133.2Z" fill="white"/>
<path d="M199.13 80.61H192.45V87.57H199.13V80.61Z" fill="white"/>
<path d="M209.91 80.61H203.23V87.57H209.91V80.61Z" fill="white"/>
<path d="M94.3 24.04V39.68H106.63V45.18H94.3V66.32H87.25V24.04C87.25 20.16 90.49 17 94.29 17H108.03V24.04H94.3Z" fill="white"/>
<path d="M129.53 59.28V17H136.57V59.28C136.57 63.16 133.33 66.32 129.53 66.32H122.84C119.04 66.32 115.8 63.15 115.8 59.28V17H122.84V59.28H129.53Z" fill="white"/>
<path d="M157.71 24.04V66.31H150.67V24.04H143.63V17H164.76V24.04H157.71Z" fill="white"/>
<path d="M185.54 59.28V17H192.58V59.28C192.58 63.16 189.34 66.32 185.54 66.32H178.85C175.05 66.32 171.81 63.15 171.81 59.28V17H178.85V59.28H185.54Z" fill="white"/>
<path d="M215.49 45.74H208.8V66.32H201.76V17H215.5C219.3 17 222.54 20.17 222.54 24.04V36.51C222.54 39.33 220.78 41.93 218.24 42.99C220.78 44.12 222.54 46.65 222.54 49.47V66.31H229.58V73.35H222.54C218.66 73.35 215.5 70.04 215.5 66.31V45.74H215.49ZM208.79 24.04V40.25H215.48V24.04H208.79Z" fill="white"/>
<path d="M252.48 59.28V66.32H238.74C234.94 66.32 231.7 63.15 231.7 59.28V24.04C231.7 20.16 234.94 17 238.74 17H252.48V24.04H238.74V38.63H251.77V44.13H238.74V59.28H252.48Z" fill="white"/>
</g>
<defs>
<filter id="filter0_d_177_1905" x="-4" y="0" width="354" height="160" filterUnits="userSpaceOnUse" color-interpolation-filters="sRGB">
<feFlood flood-opacity="0" result="BackgroundImageFix"/>
<feColorMatrix in="SourceAlpha" type="matrix" values="0 0 0 0 0 0 0 0 0 0 0 0 0 0 0 0 0 0 127 0" result="hardAlpha"/>
<feOffset dy="4"/>
<feGaussianBlur stdDeviation="2"/>
<feComposite in2="hardAlpha" operator="out"/>
<feColorMatrix type="matrix" values="0 0 0 0 0 0 0 0 0 0 0 0 0 0 0 0 0 0 0.25 0"/>
<feBlend mode="normal" in2="BackgroundImageFix" result="effect1_dropShadow_177_1905"/>
<feBlend mode="normal" in="SourceGraphic" in2="effect1_dropShadow_177_1905" result="shape"/>
</filter>
</defs>
</svg>
