<svg width="124" height="20" viewBox="0 0 124 20" fill="none" xmlns="http://www.w3.org/2000/svg">
<path d="M4.35 2.34003C4.17 2.51003 3.98 2.62003 3.86 2.73003C4.04 2.62003 4.16 2.51003 4.28 2.40003C4.29 2.40003 4.35 2.40003 4.35 2.34003Z" fill="white"/>
<path d="M13.47 19.6C13.29 19.66 13.17 19.66 12.99 19.71C13.17 19.71 13.29 19.71 13.47 19.6Z" fill="white"/>
<path d="M21.45 6.67001C21.51 6.67001 21.51 6.67001 21.45 6.67001C20.91 4.84001 19.71 3.28001 17.96 2.17001C17.18 1.67001 16.22 1.39001 15.44 1.39001C14.96 1.39001 14.54 1.50001 14.18 1.67001C13.22 2.17001 12.74 2.95001 12.74 3.84001C12.74 5.34001 13.7 6.23001 15.14 7.62001C15.92 8.34001 16.76 9.12001 17.6 10.12C18.98 11.79 19.28 14.12 18.5 16.22C18.14 17.16 17.6 17.94 16.88 18.61L16.82 18.67C18.56 17.78 19.82 16.5 20.61 14.95C22.23 11.78 21.03 9.57001 20.31 8.29001C19.89 7.57001 19.65 7.07001 19.89 6.68001C20.19 6.22001 20.79 6.22002 21.45 6.67001Z" fill="white"/>
<path d="M13.65 14.22C12.69 12.78 11.19 12.22 9.68 11.66C8.18 11.1 6.62 10.6 5.29 9.16001C3.98 7.77001 3.5 5.94001 3.74 4.12001C3.87 3.51001 4.05 2.95001 4.29 2.51001C4.29 2.51001 4.29 2.45001 4.35 2.45001C4.11 2.51001 3.99 2.62001 3.87 2.73001C1.7 4.62001 0.440002 7.22001 0.440002 10C0.440002 14.39 3.62 18.32 8.12 19.55C8.54 19.66 9.02 19.72 9.5 19.72C11 19.72 12.44 19.11 13.28 18C13.7 17.44 13.94 16.83 14.06 16.22C14.19 15.49 14.07 14.78 13.65 14.22Z" fill="white"/>
<path d="M16.65 10.67C15.87 9.73001 15.03 8.95001 14.31 8.23001C12.81 6.84001 11.61 5.67001 11.61 3.78001C11.61 1.84001 13.11 0.78001 14.55 0.45001C14.49 0.40001 14.37 0.40001 14.31 0.40001C13.41 0.18001 12.33 0.0100098 11.25 0.0100098C9.5 0.0100098 8.06 0.34001 6.74 1.07001C5.73 1.62001 5.01 2.84001 4.77 4.23001C4.65 5.11001 4.65 6.95001 6.09 8.56001C7.23 9.84001 8.67 10.34 10.06 10.84C11.68 11.45 13.37 12.01 14.57 13.73C15.35 14.9 15.35 16.56 14.63 17.9C14.57 18.01 14.51 18.07 14.45 18.18C14.45 18.24 14.39 18.24 14.39 18.24C13.79 19.13 12.83 19.8 11.81 20.02C12.35 19.96 12.83 19.85 13.31 19.69C13.37 19.69 13.37 19.63 13.49 19.63C13.55 19.57 13.61 19.57 13.67 19.57C13.79 19.51 13.91 19.51 13.97 19.4C14.03 19.34 14.15 19.34 14.15 19.29C14.33 19.23 14.45 19.12 14.69 19.01C14.75 19.01 14.75 18.95 14.75 18.95C14.93 18.84 15.11 18.73 15.29 18.56L15.35 18.5C15.53 18.39 15.65 18.22 15.83 18.11C15.89 18.05 15.89 18.05 15.95 18C16.07 17.89 16.13 17.78 16.25 17.67C16.31 17.61 16.43 17.5 16.49 17.39C16.55 17.28 16.67 17.22 16.73 17.11C16.79 17.05 16.79 17 16.85 16.94C16.85 16.94 16.85 16.88 16.91 16.88C17.15 16.49 17.33 16.16 17.51 15.71C18.09 14.11 17.79 12.11 16.65 10.67Z" fill="white"/>
<path d="M37.09 11H33.17V15.34H30.75V4.66998H33.17V8.71998H37.09V4.66998H39.5V15.34H37.09V11Z" fill="white"/>
<path d="M46.88 10.79H49.29L48.12 7.75998L46.88 10.79ZM47.08 4.66998H49.29L53.77 15.35H51.15L50.25 13.07H46.04L45.14 15.35H42.6L47.08 4.66998Z" fill="white"/>
<path d="M62.66 7.90003V11.83C64.25 11.76 64.87 11.14 64.87 9.90003C64.79 8.79003 64.24 7.97003 62.66 7.90003ZM60.17 11.76V7.83003C58.58 7.90003 58.03 8.73003 58.03 9.76003C58.03 11.07 58.72 11.69 60.17 11.76ZM60.17 13.97C57.34 13.9 55.41 12.45 55.41 9.76003C55.41 7.07003 57.34 5.62003 60.17 5.55003V4.53003H62.58V5.70003C65.41 5.77003 67.34 7.29003 67.34 9.91003C67.34 12.6 65.41 14.12 62.58 14.12V15.57H60.17C60.17 15.55 60.17 13.97 60.17 13.97Z" fill="white"/>
<path d="M69.68 4.66998H78.5V6.92998H75.27V15.34H72.85V6.92998H69.61V4.66998H69.68Z" fill="white"/>
<path d="M86.64 13.21C88.64 13.21 89.74 11.76 89.74 9.97002C89.74 7.97002 88.36 6.73002 86.64 6.73002C84.85 6.73002 83.54 8.04002 83.54 9.97002C83.53 11.76 84.91 13.21 86.64 13.21ZM86.64 4.46002C89.88 4.46002 92.35 6.60002 92.35 9.97002C92.35 13.21 89.94 15.48 86.64 15.48C83.33 15.48 80.93 13.34 80.93 9.97002C80.98 6.86002 83.19 4.46002 86.64 4.46002Z" fill="white"/>
<path d="M96 4.66998H102.13V6.92998H98.48V15.34H96.07V4.66998H96Z" fill="white"/>
<path d="M107.36 10.79H109.77L108.6 7.75998L107.36 10.79ZM107.5 4.66998H109.71L114.19 15.35H111.57L110.67 13.07H106.46L105.56 15.35H103.08L107.5 4.66998Z" fill="white"/>
<path d="M115.85 13.55L117.16 11.9C117.78 12.59 118.68 13.21 119.57 13.21C120.19 13.21 121.09 12.93 121.09 12.04C121.09 11.42 120.61 10.94 119.44 10.94H118.47V8.65H119.37C120.06 8.65 120.68 8.31 120.68 7.68C120.68 6.99 120.2 6.65 119.51 6.65C118.82 6.65 118.2 7 117.65 7.75L116.2 6.16C116.89 5.13 118.27 4.44 119.86 4.44C121.79 4.44 123.17 5.47 123.17 7.47C123.17 8.23 122.83 9.12 121.86 9.75V9.82C123.17 10.23 123.58 11.13 123.58 12.37C123.58 14.37 121.65 15.54 119.72 15.54C117.56 15.47 116.47 14.38 115.85 13.55Z" fill="white"/>
</svg>
