<svg width="111" height="20" viewBox="0 0 111 20" fill="none" xmlns="http://www.w3.org/2000/svg">
<g clip-path="url(#clip0_180_2577)">
<path d="M19.4417 6.6609H19.472C18.9483 4.8258 17.044 1.57975 13.8455 1.35469C12.4605 1.35036 11.3309 2.467 11.3136 3.85198C11.3136 5.37113 12.1359 6.39256 13.5296 7.63039C17.6845 11.3049 18.0351 15.4209 15.092 18.6453C16.6328 17.8013 17.8706 16.4856 18.6194 14.8972C19.6884 12.6206 19.5239 9.95889 18.1866 7.82948C17.4162 6.50942 18.4679 5.87319 19.4634 6.6609" fill="white"/>
<path d="M12.3307 17.2084C11.7767 18.628 10.0714 20.4761 7.13698 19.5802C2.92145 18.2861 0.0346245 14.4081 0 9.99781C0.0346245 7.07637 1.32872 4.31506 3.54902 2.41504C2.55356 4.66131 2.92145 7.27979 4.49253 9.16682C5.70872 10.5951 7.14131 11.1491 8.53062 11.6858C8.53062 11.6858 13.8931 13.2006 12.3307 17.2084Z" fill="white"/>
<path d="M15.0098 10.6903C14.3432 9.83338 13.6205 9.02403 12.8457 8.26662C11.4564 6.85134 10.3614 5.7347 10.3614 3.83035C10.3614 1.926 11.7464 0.891589 13.1097 0.502063C8.19305 -0.94784 3.80439 0.766075 3.9602 5.15041C4.10736 9.14089 7.59145 10.2965 8.8639 10.7769C10.3614 11.3525 12.1446 12.1662 13.0059 13.6594C14.2134 15.7239 13.5209 18.3727 11.4607 19.5802C11.1621 19.7576 10.8418 19.8961 10.5042 19.9957C12.8674 19.723 14.8756 18.1433 15.6979 15.91C16.3471 14.1614 16.0874 12.2095 15.0098 10.6903Z" fill="white"/>
<path d="M33.3737 14.7544L28.8293 9.0024V14.7544H26.7734V5.17206H28.5263L33.0708 10.95V5.17206H35.1266V14.7544H33.3737Z" fill="white"/>
<path d="M41.2378 10.686H43.4018L42.3371 7.97665L41.2378 10.686ZM41.4023 5.17206H43.3629L47.3664 14.7544H45.0292L44.2328 12.7418H40.4155L39.6234 14.7544H37.4118L41.4023 5.17206Z" fill="white"/>
<path d="M49.8983 5.17206H55.4426V7.22789H52.0883V9.2491H55.0314V11.3049H52.0883V14.7544H49.8983V5.17206Z" fill="white"/>
<path d="M57.9572 5.17206H65.8992V7.22789H63.021V14.7544H60.831V7.22789H57.9572V5.17206Z" fill="white"/>
<path d="M72.6812 12.8673C74.5033 12.8673 75.4469 11.5689 75.4469 9.96321C75.5421 8.45704 74.3951 7.15862 72.8846 7.0634C72.8154 7.05907 72.7505 7.05907 72.6812 7.05907C71.0928 7.05907 69.9156 8.21034 69.9156 9.96321C69.8637 11.5127 71.0755 12.8154 72.6293 12.8673C72.6466 12.8673 72.6639 12.8673 72.6812 12.8673ZM72.6812 5.00757C75.5983 5.00757 77.7754 6.91192 77.7754 9.96321C77.7754 12.8673 75.6113 14.9188 72.6812 14.9188C69.7511 14.9188 67.5871 13.0145 67.5871 9.96321C67.5871 7.18459 69.6299 5.00757 72.6812 5.00757Z" fill="white"/>
<path d="M84.8864 9.29235H88.9808V13.5642C87.9853 14.4298 86.7129 14.9102 85.3928 14.9188C82.1035 14.9188 80.2597 12.9409 80.2597 9.9632C80.2597 7.21055 82.1035 5.00756 85.1158 5.00756C86.2498 4.95563 87.3621 5.31486 88.2536 6.016L87.3361 7.78185C86.7908 7.31009 86.0939 7.05907 85.3755 7.06772C83.8044 7.06772 82.5839 7.99826 82.5839 9.97186C82.5839 11.7377 83.7092 12.876 85.4188 12.876C85.9554 12.8673 86.4791 12.6985 86.9249 12.3956V11.3439H84.8864V9.29235Z" fill="white"/>
<path d="M94.7457 10.686H96.9097L95.8407 7.97665L94.7457 10.686ZM94.9102 5.17206H96.8708L100.853 14.7544H98.5111L97.7191 12.7418H93.9277L93.1313 14.7544H90.9283L94.9102 5.17206Z" fill="white"/>
<path d="M103.359 5.17206V7.22789H107.821L103.086 13.2223V14.7544H110.885V12.7029H105.999L110.751 6.70419V5.17206H103.359Z" fill="white"/>
</g>
<defs>
<clipPath id="clip0_180_2577">
<rect width="110.885" height="20" fill="white"/>
</clipPath>
</defs>
</svg>
